<mxfile host="Electron" modified="2025-08-10T09:38:18.869Z" agent="Mozilla/5.0 (Windows NT 10.0; Win64; x64) AppleWebKit/537.36 (KHTML, like Gecko) draw.io/24.1.0 Chrome/120.0.6099.109 Electron/28.1.0 Safari/537.36" etag="cGF6i7b7Gp_z003sK7St" version="24.1.0" type="device">
  <diagram name="Sheet 1" id="rlgoqLv1cVGT0BMiNDzZ">
    <mxGraphModel dx="1687" dy="984" grid="1" gridSize="1.9685" guides="1" tooltips="1" connect="1" arrows="1" fold="1" page="1" pageScale="1" pageWidth="827" pageHeight="1169" math="0" shadow="0">
      <root>
        <mxCell id="6ik4fCtfQ_uQef5bXLx3-0" />
        <mxCell id="6ik4fCtfQ_uQef5bXLx3-1" parent="6ik4fCtfQ_uQef5bXLx3-0" />
        <mxCell id="6ik4fCtfQ_uQef5bXLx3-3" value="" style="rounded=0;whiteSpace=wrap;html=1;fillColor=none;strokeWidth=1;" parent="6ik4fCtfQ_uQef5bXLx3-1" vertex="1">
          <mxGeometry x="39.37" y="39.37" width="748.03" height="1090.63" as="geometry" />
        </mxCell>
        <mxCell id="YUCStTvPWFlk6TsdCaYC-0" value="" style="shape=image;verticalLabelPosition=bottom;verticalAlign=top;imageAspect=0;aspect=fixed;image=data:image/svg+xml,PHN2ZyB4bWxuczp4bGluaz0iaHR0cDovL3d3dy53My5vcmcvMTk5OS94bGluayIgeG1sbnM9Imh0dHA6Ly93d3cudzMub3JnLzIwMDAvc3ZnIiB2aWV3Qm94PSIwIDAgNTk1IDg0MiIgaGVpZ2h0PSI4NDIiIHdpZHRoPSI1OTUiIHZlcnNpb249IjEuMSI+JiN4YTs8ZGVmcz4mI3hhOzxjbGlwUGF0aCBpZD0iY2xpcF8wIj4mI3hhOzxwYXRoIGQ9Ik0xNDU5IDk4MjhINDUwNFYxMjI0OUgxNDU5Vjk4MjgiIHRyYW5zZm9ybT0ibWF0cml4KC4wNiwwLDAsLS4wNiwwLDg0MikiLz4mI3hhOzwvY2xpcFBhdGg+JiN4YTs8Y2xpcFBhdGggaWQ9ImNsaXBfMSI+JiN4YTs8cGF0aCBkPSJNMTQ1OSA3NDA4SDQ1MDRWODUxNkgxNDU5Vjc0MDgiIHRyYW5zZm9ybT0ibWF0cml4KC4wNiwwLDAsLS4wNiwwLDg0MikiLz4mI3hhOzwvY2xpcFBhdGg+JiN4YTs8Y2xpcFBhdGggaWQ9ImNsaXBfMiI+JiN4YTs8cGF0aCBkPSJNNTM4MSA5ODM0SDg0MjZWMTIyNTVINTM4MVY5ODM0IiB0cmFuc2Zvcm09Im1hdHJpeCguMDYsMCwwLC0uMDYsMCw4NDIpIi8+JiN4YTs8L2NsaXBQYXRoPiYjeGE7PGNsaXBQYXRoIGlkPSJjbGlwXzMiPiYjeGE7PHBhdGggZD0iTTUzODEgNzc2N0g4NDI2VjgyNjFINTM4MVY3NzY3IiB0cmFuc2Zvcm09Im1hdHJpeCguMDYsMCwwLC0uMDYsMCw4NDIpIi8+JiN4YTs8L2NsaXBQYXRoPiYjeGE7PGNsaXBQYXRoIGlkPSJjbGlwXzQiPiYjeGE7PHBhdGggZD0iTTAgMEg5OTIxVjE0MDMxSDBWMCIgdHJhbnNmb3JtPSJtYXRyaXgoLjA2LDAsMCwtLjA2LDAsODQyKSIvPiYjeGE7PC9jbGlwUGF0aD4mI3hhOzxjbGlwUGF0aCBpZD0iY2xpcF81Ij4mI3hhOzxwYXRoIGQ9Ik0wIDBIOTkyMVYxNDAzMUgwVjAiIHRyYW5zZm9ybT0ibWF0cml4KC4wNiwwLDAsLS4wNiwwLDg0MikiLz4mI3hhOzwvY2xpcFBhdGg+JiN4YTs8Y2xpcFBhdGggaWQ9ImNsaXBfNiI+JiN4YTs8cGF0aCBkPSJNMCAwSDk5MjFWMTQwMzFIMFYwIiB0cmFuc2Zvcm09Im1hdHJpeCguMDYsMCwwLC0uMDYsMCw4NDIpIi8+JiN4YTs8L2NsaXBQYXRoPiYjeGE7PGNsaXBQYXRoIGlkPSJjbGlwXzciPiYjeGE7PHBhdGggZD0iTTAgMEg5OTIxVjE0MDMxSDBWMCIgdHJhbnNmb3JtPSJtYXRyaXgoLjA2LDAsMCwtLjA2LDAsODQyKSIvPiYjeGE7PC9jbGlwUGF0aD4mI3hhOzxjbGlwUGF0aCBpZD0iY2xpcF84Ij4mI3hhOzxwYXRoIGQ9Ik0wIDBIOTkyMVYxNDAzMUgwVjAiIHRyYW5zZm9ybT0ibWF0cml4KC4wNiwwLDAsLS4wNiwwLDg0MikiLz4mI3hhOzwvY2xpcFBhdGg+JiN4YTs8L2RlZnM+JiN4YTs8ZyBjbGlwLXBhdGg9InVybCgjY2xpcF8wKSI+JiN4YTs8Zz4mI3hhOzxwYXRoIGQ9Ik0wLTM3LjVDMjAuNzEwNjgtMzcuNSAzNy41LTIwLjcxMDY4IDM3LjUgMCIgc3Ryb2tlPSIjMDAwMDAwIiBmaWxsPSJub25lIiBzdHJva2UtbGluZWpvaW49InJvdW5kIiBzdHJva2UtbGluZWNhcD0icm91bmQiIHN0cm9rZS13aWR0aD0iMTIiIHRyYW5zZm9ybT0ibWF0cml4KC0uMDYsLTAsMCwuMDYsMjE1LjQzLDIwOS4xNTAwMykiLz4mI3hhOzxwYXRoIGQ9Ik0zNTkwIDEwNTg1SDM4MTciIHN0cm9rZT0iIzAwMDAwMCIgZmlsbD0ibm9uZSIgc3Ryb2tlLWxpbmVqb2luPSJyb3VuZCIgc3Ryb2tlLWxpbmVjYXA9InJvdW5kIiBzdHJva2Utd2lkdGg9IjEyIiB0cmFuc2Zvcm09Im1hdHJpeCguMDYsMCwwLC0uMDYsMCw4NDIpIi8+JiN4YTs8cGF0aCBkPSJNMzg1NSAxMDU0Ny41QzM4NTUgMTA1NjguMjExIDM4MzguMjEwOCAxMDU4NSAzODE3LjUgMTA1ODUiIHN0cm9rZT0iIzAwMDAwMCIgZmlsbD0ibm9uZSIgc3Ryb2tlLWxpbmVqb2luPSJyb3VuZCIgc3Ryb2tlLWxpbmVjYXA9InJvdW5kIiBzdHJva2Utd2lkdGg9IjEyIiB0cmFuc2Zvcm09Im1hdHJpeCguMDYsMCwwLC0uMDYsMCw4NDIpIi8+JiN4YTs8cGF0aCBkPSJNMzg1NSAxMDU0N1YxMDMyMCIgc3Ryb2tlPSIjMDAwMDAwIiBmaWxsPSJub25lIiBzdHJva2UtbGluZWpvaW49InJvdW5kIiBzdHJva2UtbGluZWNhcD0icm91bmQiIHN0cm9rZS13aWR0aD0iMTIiIHRyYW5zZm9ybT0ibWF0cml4KC4wNiwwLDAsLS4wNiwwLDg0MikiLz4mI3hhOzxwYXRoIGQ9Ik0yMzc3LjUgMTAyODNDMjM5OC4yMTA4IDEwMjgzIDI0MTUgMTAyOTkuNzg5IDI0MTUgMTAzMjAuNSIgc3Ryb2tlPSIjMDAwMDAwIiBmaWxsPSJub25lIiBzdHJva2UtbGluZWpvaW49InJvdW5kIiBzdHJva2UtbGluZWNhcD0icm91bmQiIHN0cm9rZS13aWR0aD0iMTIiIHRyYW5zZm9ybT0ibWF0cml4KC4wNiwwLDAsLS4wNiwwLDg0MikiLz4mI3hhOzxwYXRoIGQ9Ik0yMzc3IDEwMjgySDE4NDciIHN0cm9rZT0iIzAwMDAwMCIgZmlsbD0ibm9uZSIgc3Ryb2tlLWxpbmVqb2luPSJyb3VuZCIgc3Ryb2tlLWxpbmVjYXA9InJvdW5kIiBzdHJva2Utd2lkdGg9IjEyIiB0cmFuc2Zvcm09Im1hdHJpeCguMDYsMCwwLC0uMDYsMCw4NDIpIi8+JiN4YTs8cGF0aCBkPSJNMzcuNSAwQzM3LjUgMjAuNzEwNjggMjAuNzEwNjggMzcuNSAwIDM3LjUiIHN0cm9rZT0iIzAwMDAwMCIgZmlsbD0ibm9uZSIgc3Ryb2tlLWxpbmVqb2luPSJyb3VuZCIgc3Ryb2tlLWxpbmVjYXA9InJvdW5kIiBzdHJva2Utd2lkdGg9IjEyIiB0cmFuc2Zvcm09Im1hdHJpeCgtLjA2LC0wLDAsLjA2LDExMC44NSwyMjIuNzcwMDIpIi8+JiN4YTs8cGF0aCBkPSJNMTgxMCAxMDMyMFYxMDU0NyIgc3Ryb2tlPSIjMDAwMDAwIiBmaWxsPSJub25lIiBzdHJva2UtbGluZWpvaW49InJvdW5kIiBzdHJva2UtbGluZWNhcD0icm91bmQiIHN0cm9rZS13aWR0aD0iMTIiIHRyYW5zZm9ybT0ibWF0cml4KC4wNiwwLDAsLS4wNiwwLDg0MikiLz4mI3hhOzxwYXRoIGQ9Ik0zMzM3LjUgMTAyODNDMzM1OC4yMTA4IDEwMjgzIDMzNzUgMTAyOTkuNzg5IDMzNzUgMTAzMjAuNSIgc3Ryb2tlPSIjMDAwMDAwIiBmaWxsPSJub25lIiBzdHJva2UtbGluZWpvaW49InJvdW5kIiBzdHJva2UtbGluZWNhcD0icm91bmQiIHN0cm9rZS13aWR0aD0iMTIiIHRyYW5zZm9ybT0ibWF0cml4KC4wNiwwLDAsLS4wNiwwLDg0MikiLz4mI3hhOzxwYXRoIGQ9Ik0zMzM3IDEwMjgySDMxMTAiIHN0cm9rZT0iIzAwMDAwMCIgZmlsbD0ibm9uZSIgc3Ryb2tlLWxpbmVqb2luPSJyb3VuZCIgc3Ryb2tlLWxpbmVjYXA9InJvdW5kIiBzdHJva2Utd2lkdGg9IjEyIiB0cmFuc2Zvcm09Im1hdHJpeCguMDYsMCwwLC0uMDYsMCw4NDIpIi8+JiN4YTs8cGF0aCBkPSJNMzcuNSAwQzM3LjUgMjAuNzEwNjggMjAuNzEwNjggMzcuNSAwIDM3LjUiIHN0cm9rZT0iIzAwMDAwMCIgZmlsbD0ibm9uZSIgc3Ryb2tlLWxpbmVqb2luPSJyb3VuZCIgc3Ryb2tlLWxpbmVjYXA9InJvdW5kIiBzdHJva2Utd2lkdGg9IjEyIiB0cmFuc2Zvcm09Im1hdHJpeCgtLjA2LC0wLDAsLjA2LDE4Ni42Mjk5OSwyMjIuNzcwMDIpIi8+JiN4YTs8cGF0aCBkPSJNMzA3MiAxMDMyMFYxMDU0NyIgc3Ryb2tlPSIjMDAwMDAwIiBmaWxsPSJub25lIiBzdHJva2UtbGluZWpvaW49InJvdW5kIiBzdHJva2UtbGluZWNhcD0icm91bmQiIHN0cm9rZS13aWR0aD0iMTIiIHRyYW5zZm9ybT0ibWF0cml4KC4wNiwwLDAsLS4wNiwwLDg0MikiLz4mI3hhOzxwYXRoIGQ9Ik0yODU3LjUgMTAyODNDMjg3OC4yMTA4IDEwMjgzIDI4OTUgMTAyOTkuNzg5IDI4OTUgMTAzMjAuNSIgc3Ryb2tlPSIjMDAwMDAwIiBmaWxsPSJub25lIiBzdHJva2UtbGluZWpvaW49InJvdW5kIiBzdHJva2UtbGluZWNhcD0icm91bmQiIHN0cm9rZS13aWR0aD0iMTIiIHRyYW5zZm9ybT0ibWF0cml4KC4wNiwwLDAsLS4wNiwwLDg0MikiLz4mI3hhOzxwYXRoIGQ9Ik0yODU3IDEwMjgySDI2MzAiIHN0cm9rZT0iIzAwMDAwMCIgZmlsbD0ibm9uZSIgc3Ryb2tlLWxpbmVqb2luPSJyb3VuZCIgc3Ryb2tlLWxpbmVjYXA9InJvdW5kIiBzdHJva2Utd2lkdGg9IjEyIiB0cmFuc2Zvcm09Im1hdHJpeCguMDYsMCwwLC0uMDYsMCw4NDIpIi8+JiN4YTs8cGF0aCBkPSJNMzcuNSAwQzM3LjUgMjAuNzEwNjggMjAuNzEwNjggMzcuNSAwIDM3LjUiIHN0cm9rZT0iIzAwMDAwMCIgZmlsbD0ibm9uZSIgc3Ryb2tlLWxpbmVqb2luPSJyb3VuZCIgc3Ryb2tlLWxpbmVjYXA9InJvdW5kIiBzdHJva2Utd2lkdGg9IjEyIiB0cmFuc2Zvcm09Im1hdHJpeCgtLjA2LC0wLDAsLjA2LDE1Ny44MywyMjIuNzcwMDIpIi8+JiN4YTs8cGF0aCBkPSJNMjU5MiAxMDMyMFYxMDU0NyIgc3Ryb2tlPSIjMDAwMDAwIiBmaWxsPSJub25lIiBzdHJva2UtbGluZWpvaW49InJvdW5kIiBzdHJva2UtbGluZWNhcD0icm91bmQiIHN0cm9rZS13aWR0aD0iMTIiIHRyYW5zZm9ybT0ibWF0cml4KC4wNiwwLDAsLS4wNiwwLDg0MikiLz4mI3hhOzxwYXRoIGQ9Ik0xNjExIDEyMDAyVjEwMDc1IiBzdHJva2U9IiMwMDAwMDAiIGZpbGw9Im5vbmUiIHN0cm9rZS1saW5lam9pbj0icm91bmQiIHN0cm9rZS1saW5lY2FwPSJyb3VuZCIgc3Ryb2tlLXdpZHRoPSIxMiIgdHJhbnNmb3JtPSJtYXRyaXgoLjA2LDAsMCwtLjA2LDAsODQyKSIvPiYjeGE7PHBhdGggZD0iTTE2MTIgMTAwNzUuNUMxNjEyIDEwMDIzLjMxIDE2NTQuMzA5MSA5OTgxIDE3MDYuNSA5OTgxIiBzdHJva2U9IiMwMDAwMDAiIGZpbGw9Im5vbmUiIHN0cm9rZS1saW5lam9pbj0icm91bmQiIHN0cm9rZS1saW5lY2FwPSJyb3VuZCIgc3Ryb2tlLXdpZHRoPSIxMiIgdHJhbnNmb3JtPSJtYXRyaXgoLjA2LDAsMCwtLjA2LDAsODQyKSIvPiYjeGE7PHBhdGggZD0iTTE3MDYgOTk4MEg0MjU3IiBzdHJva2U9IiMwMDAwMDAiIGZpbGw9Im5vbmUiIHN0cm9rZS1saW5lam9pbj0icm91bmQiIHN0cm9rZS1saW5lY2FwPSJyb3VuZCIgc3Ryb2tlLXdpZHRoPSIxMiIgdHJhbnNmb3JtPSJtYXRyaXgoLjA2LDAsMCwtLjA2LDAsODQyKSIvPiYjeGE7PHBhdGggZD0iTTQyNTcuNSA5OTgxQzQzMDkuNjkxIDk5ODEgNDM1MiAxMDAyMy4zMSA0MzUyIDEwMDc1LjUiIHN0cm9rZT0iIzAwMDAwMCIgZmlsbD0ibm9uZSIgc3Ryb2tlLWxpbmVqb2luPSJyb3VuZCIgc3Ryb2tlLWxpbmVjYXA9InJvdW5kIiBzdHJva2Utd2lkdGg9IjEyIiB0cmFuc2Zvcm09Im1hdHJpeCguMDYsMCwwLC0uMDYsMCw4NDIpIi8+JiN4YTs8cGF0aCBkPSJNNDI1OCAxMTk1NS41QzQyNTggMTE5ODEuNzMzIDQyMzYuNzMzNiAxMjAwMyA0MjEwLjUgMTIwMDMiIHN0cm9rZT0iIzAwMDAwMCIgZmlsbD0ibm9uZSIgc3Ryb2tlLWxpbmVqb2luPSJyb3VuZCIgc3Ryb2tlLWxpbmVjYXA9InJvdW5kIiBzdHJva2Utd2lkdGg9IjEyIiB0cmFuc2Zvcm09Im1hdHJpeCguMDYsMCwwLC0uMDYsMCw4NDIpIi8+JiN4YTs8cGF0aCBkPSJNMTc1MyAxMjAwMkg0MjEwIiBzdHJva2U9IiMwMDAwMDAiIGZpbGw9Im5vbmUiIHN0cm9rZS1saW5lam9pbj0icm91bmQiIHN0cm9rZS1saW5lY2FwPSJyb3VuZCIgc3Ryb2tlLXdpZHRoPSIxMiIgdHJhbnNmb3JtPSJtYXRyaXgoLjA2LDAsMCwtLjA2LDAsODQyKSIvPiYjeGE7PHBhdGggZD0iTTQyMTAuNSAxMDA3NUM0MjM2LjczMzYgMTAwNzUgNDI1OCAxMDA5Ni4yNjcgNDI1OCAxMDEyMi41IiBzdHJva2U9IiMwMDAwMDAiIGZpbGw9Im5vbmUiIHN0cm9rZS1saW5lam9pbj0icm91bmQiIHN0cm9rZS1saW5lY2FwPSJyb3VuZCIgc3Ryb2tlLXdpZHRoPSIxMiIgdHJhbnNmb3JtPSJtYXRyaXgoLjA2LDAsMCwtLjA2LDAsODQyKSIvPiYjeGE7PHBhdGggZD0iTTQyNTcgMTE5NTVWMTAxMjIiIHN0cm9rZT0iIzAwMDAwMCIgZmlsbD0ibm9uZSIgc3Ryb2tlLWxpbmVqb2luPSJyb3VuZCIgc3Ryb2tlLWxpbmVjYXA9InJvdW5kIiBzdHJva2Utd2lkdGg9IjEyIiB0cmFuc2Zvcm09Im1hdHJpeCguMDYsMCwwLC0uMDYsMCw4NDIpIi8+JiN4YTs8cGF0aCBkPSJNNDcuNSAwQzQ3LjUgMjYuMjMzNTMgMjYuMjMzNTMgNDcuNSAwIDQ3LjUiIHN0cm9rZT0iIzAwMDAwMCIgZmlsbD0ibm9uZSIgc3Ryb2tlLWxpbmVqb2luPSJyb3VuZCIgc3Ryb2tlLWxpbmVjYXA9InJvdW5kIiBzdHJva2Utd2lkdGg9IjEyIiB0cmFuc2Zvcm09Im1hdHJpeCgtLjA2LC0wLDAsLjA2LDEwNS4yMSwyMzQuNjUwMDMpIi8+JiN4YTs8cGF0aCBkPSJNNDIxMCAxMDA3NUgxNzUzIiBzdHJva2U9IiMwMDAwMDAiIGZpbGw9Im5vbmUiIHN0cm9rZS1saW5lam9pbj0icm91bmQiIHN0cm9rZS1saW5lY2FwPSJyb3VuZCIgc3Ryb2tlLXdpZHRoPSIxMiIgdHJhbnNmb3JtPSJtYXRyaXgoLjA2LDAsMCwtLjA2LDAsODQyKSIvPiYjeGE7PHBhdGggZD0iTTAtNDcuNUMyNi4yMzM1My00Ny41IDQ3LjUtMjYuMjMzNTMgNDcuNSAwIiBzdHJva2U9IiMwMDAwMDAiIGZpbGw9Im5vbmUiIHN0cm9rZS1saW5lam9pbj0icm91bmQiIHN0cm9rZS1saW5lY2FwPSJyb3VuZCIgc3Ryb2tlLXdpZHRoPSIxMiIgdHJhbnNmb3JtPSJtYXRyaXgoLS4wNiwtMCwwLC4wNiwxMDUuMjEsMTI0LjY3MDA0NykiLz4mI3hhOzxwYXRoIGQ9Ik0xNzA2IDEwMTIyVjExOTU1IiBzdHJva2U9IiMwMDAwMDAiIGZpbGw9Im5vbmUiIHN0cm9rZS1saW5lam9pbj0icm91bmQiIHN0cm9rZS1saW5lY2FwPSJyb3VuZCIgc3Ryb2tlLXdpZHRoPSIxMiIgdHJhbnNmb3JtPSJtYXRyaXgoLjA2LDAsMCwtLjA2LDAsODQyKSIvPiYjeGE7PHBhdGggZD0iTTQzNTIgMTAwNzVWMTIwMDIiIHN0cm9rZT0iIzAwMDAwMCIgZmlsbD0ibm9uZSIgc3Ryb2tlLWxpbmVqb2luPSJyb3VuZCIgc3Ryb2tlLWxpbmVjYXA9InJvdW5kIiBzdHJva2Utd2lkdGg9IjEyIiB0cmFuc2Zvcm09Im1hdHJpeCguMDYsMCwwLC0uMDYsMCw4NDIpIi8+JiN4YTs8cGF0aCBkPSJNLTk0LjUgMEMtOTQuNS01Mi4xOTA5MS01Mi4xOTA5MS05NC41IDAtOTQuNSIgc3Ryb2tlPSIjMDAwMDAwIiBmaWxsPSJub25lIiBzdHJva2UtbGluZWpvaW49InJvdW5kIiBzdHJva2UtbGluZWNhcD0icm91bmQiIHN0cm9rZS13aWR0aD0iMTIiIHRyYW5zZm9ybT0ibWF0cml4KC0uMDYsLTAsMCwuMDYsMjU1LjQ1LDEyMS44NTAwNCkiLz4mI3hhOzxwYXRoIGQ9Ik00MjU3IDEyMDk3SDE3MDYiIHN0cm9rZT0iIzAwMDAwMCIgZmlsbD0ibm9uZSIgc3Ryb2tlLWxpbmVqb2luPSJyb3VuZCIgc3Ryb2tlLWxpbmVjYXA9InJvdW5kIiBzdHJva2Utd2lkdGg9IjEyIiB0cmFuc2Zvcm09Im1hdHJpeCguMDYsMCwwLC0uMDYsMCw4NDIpIi8+JiN4YTs8cGF0aCBkPSJNMC05NC41QzUyLjE5MDkxLTk0LjUgOTQuNS01Mi4xOTA5MSA5NC41IDAiIHN0cm9rZT0iIzAwMDAwMCIgZmlsbD0ibm9uZSIgc3Ryb2tlLWxpbmVqb2luPSJyb3VuZCIgc3Ryb2tlLWxpbmVjYXA9InJvdW5kIiBzdHJva2Utd2lkdGg9IjEyIiB0cmFuc2Zvcm09Im1hdHJpeCgtLjA2LC0wLDAsLjA2LDEwMi4zOSwxMjEuODUwMDQpIi8+JiN4YTs8cGF0aCBkPSJNMC0zNy41QzIwLjcxMDY4LTM3LjUgMzcuNS0yMC43MTA2OCAzNy41IDAiIHN0cm9rZT0iIzAwMDAwMCIgZmlsbD0ibm9uZSIgc3Ryb2tlLWxpbmVqb2luPSJyb3VuZCIgc3Ryb2tlLWxpbmVjYXA9InJvdW5kIiBzdHJva2Utd2lkdGg9IjEyIiB0cmFuc2Zvcm09Im1hdHJpeCgtLjA2LC0wLDAsLjA2LDExMC44NSwyMDkuMTUwMDMpIi8+JiN4YTs8cGF0aCBkPSJNMjQxNCAxMDU0N1YxMDMyMCIgc3Ryb2tlPSIjMDAwMDAwIiBmaWxsPSJub25lIiBzdHJva2UtbGluZWpvaW49InJvdW5kIiBzdHJva2UtbGluZWNhcD0icm91bmQiIHN0cm9rZS13aWR0aD0iMTIiIHRyYW5zZm9ybT0ibWF0cml4KC4wNiwwLDAsLS4wNiwwLDg0MikiLz4mI3hhOzxwYXRoIGQ9Ik0yNDE1IDEwNTQ3LjVDMjQxNSAxMDU2OC4yMTEgMjM5OC4yMTA4IDEwNTg1IDIzNzcuNSAxMDU4NSIgc3Ryb2tlPSIjMDAwMDAwIiBmaWxsPSJub25lIiBzdHJva2UtbGluZWpvaW49InJvdW5kIiBzdHJva2UtbGluZWNhcD0icm91bmQiIHN0cm9rZS13aWR0aD0iMTIiIHRyYW5zZm9ybT0ibWF0cml4KC4wNiwwLDAsLS4wNiwwLDg0MikiLz4mI3hhOzxwYXRoIGQ9Ik0xODQ3IDEwNTg1SDIzNzciIHN0cm9rZT0iIzAwMDAwMCIgZmlsbD0ibm9uZSIgc3Ryb2tlLWxpbmVqb2luPSJyb3VuZCIgc3Ryb2tlLWxpbmVjYXA9InJvdW5kIiBzdHJva2Utd2lkdGg9IjEyIiB0cmFuc2Zvcm09Im1hdHJpeCguMDYsMCwwLC0uMDYsMCw4NDIpIi8+JiN4YTs8cGF0aCBkPSJNMjg5NSAxMDU0N1YxMDMyMCIgc3Ryb2tlPSIjMDAwMDAwIiBmaWxsPSJub25lIiBzdHJva2UtbGluZWpvaW49InJvdW5kIiBzdHJva2UtbGluZWNhcD0icm91bmQiIHN0cm9rZS13aWR0aD0iMTIiIHRyYW5zZm9ybT0ibWF0cml4KC4wNiwwLDAsLS4wNiwwLDg0MikiLz4mI3hhOzxwYXRoIGQ9Ik0wLTM3LjVDMjAuNzEwNjgtMzcuNSAzNy41LTIwLjcxMDY4IDM3LjUgMCIgc3Ryb2tlPSIjMDAwMDAwIiBmaWxsPSJub25lIiBzdHJva2UtbGluZWpvaW49InJvdW5kIiBzdHJva2UtbGluZWNhcD0icm91bmQiIHN0cm9rZS13aWR0aD0iMTIiIHRyYW5zZm9ybT0ibWF0cml4KC0uMDYsLTAsMCwuMDYsMTU3LjgzLDIwOS4xNTAwMykiLz4mI3hhOzxwYXRoIGQ9Ik0yODk1IDEwNTQ3LjVDMjg5NSAxMDU2OC4yMTEgMjg3OC4yMTA4IDEwNTg1IDI4NTcuNSAxMDU4NSIgc3Ryb2tlPSIjMDAwMDAwIiBmaWxsPSJub25lIiBzdHJva2UtbGluZWpvaW49InJvdW5kIiBzdHJva2UtbGluZWNhcD0icm91bmQiIHN0cm9rZS13aWR0aD0iMTIiIHRyYW5zZm9ybT0ibWF0cml4KC4wNiwwLDAsLS4wNiwwLDg0MikiLz4mI3hhOzxwYXRoIGQ9Ik0yNjMwIDEwNTg1SDI4NTciIHN0cm9rZT0iIzAwMDAwMCIgZmlsbD0ibm9uZSIgc3Ryb2tlLWxpbmVqb2luPSJyb3VuZCIgc3Ryb2tlLWxpbmVjYXA9InJvdW5kIiBzdHJva2Utd2lkdGg9IjEyIiB0cmFuc2Zvcm09Im1hdHJpeCguMDYsMCwwLC0uMDYsMCw4NDIpIi8+JiN4YTs8cGF0aCBkPSJNMzM3NSAxMDU0N1YxMDMyMCIgc3Ryb2tlPSIjMDAwMDAwIiBmaWxsPSJub25lIiBzdHJva2UtbGluZWpvaW49InJvdW5kIiBzdHJva2UtbGluZWNhcD0icm91bmQiIHN0cm9rZS13aWR0aD0iMTIiIHRyYW5zZm9ybT0ibWF0cml4KC4wNiwwLDAsLS4wNiwwLDg0MikiLz4mI3hhOzxwYXRoIGQ9Ik0wLTM3LjVDMjAuNzEwNjgtMzcuNSAzNy41LTIwLjcxMDY4IDM3LjUgMCIgc3Ryb2tlPSIjMDAwMDAwIiBmaWxsPSJub25lIiBzdHJva2UtbGluZWpvaW49InJvdW5kIiBzdHJva2UtbGluZWNhcD0icm91bmQiIHN0cm9rZS13aWR0aD0iMTIiIHRyYW5zZm9ybT0ibWF0cml4KC0uMDYsLTAsMCwuMDYsMTg2LjYyOTk5LDIwOS4xNTAwMykiLz4mI3hhOzxwYXRoIGQ9Ik0zMzc1IDEwNTQ3LjVDMzM3NSAxMDU2OC4yMTEgMzM1OC4yMTA4IDEwNTg1IDMzMzcuNSAxMDU4NSIgc3Ryb2tlPSIjMDAwMDAwIiBmaWxsPSJub25lIiBzdHJva2UtbGluZWpvaW49InJvdW5kIiBzdHJva2UtbGluZWNhcD0icm91bmQiIHN0cm9rZS13aWR0aD0iMTIiIHRyYW5zZm9ybT0ibWF0cml4KC4wNiwwLDAsLS4wNiwwLDg0MikiLz4mI3hhOzxwYXRoIGQ9Ik0zMTEwIDEwNTg1SDMzMzciIHN0cm9rZT0iIzAwMDAwMCIgZmlsbD0ibm9uZSIgc3Ryb2tlLWxpbmVqb2luPSJyb3VuZCIgc3Ryb2tlLWxpbmVjYXA9InJvdW5kIiBzdHJva2Utd2lkdGg9IjEyIiB0cmFuc2Zvcm09Im1hdHJpeCguMDYsMCwwLC0uMDYsMCw4NDIpIi8+JiN4YTs8cGF0aCBkPSJNMzcuNSAwQzM3LjUgMjAuNzEwNjggMjAuNzEwNjggMzcuNSAwIDM3LjUiIHN0cm9rZT0iIzAwMDAwMCIgZmlsbD0ibm9uZSIgc3Ryb2tlLWxpbmVqb2luPSJyb3VuZCIgc3Ryb2tlLWxpbmVjYXA9InJvdW5kIiBzdHJva2Utd2lkdGg9IjEyIiB0cmFuc2Zvcm09Im1hdHJpeCgtLjA2LC0wLDAsLjA2LDIxNS40MywyMjIuNzcwMDIpIi8+JiN4YTs8cGF0aCBkPSJNMzgxNyAxMDI4MkgzNTkwIiBzdHJva2U9IiMwMDAwMDAiIGZpbGw9Im5vbmUiIHN0cm9rZS1saW5lam9pbj0icm91bmQiIHN0cm9rZS1saW5lY2FwPSJyb3VuZCIgc3Ryb2tlLXdpZHRoPSIxMiIgdHJhbnNmb3JtPSJtYXRyaXgoLjA2LDAsMCwtLjA2LDAsODQyKSIvPiYjeGE7PHBhdGggZD0iTTM4MTcuNSAxMDI4M0MzODM4LjIxMDggMTAyODMgMzg1NSAxMDI5OS43ODkgMzg1NSAxMDMyMC41IiBzdHJva2U9IiMwMDAwMDAiIGZpbGw9Im5vbmUiIHN0cm9rZS1saW5lam9pbj0icm91bmQiIHN0cm9rZS1saW5lY2FwPSJyb3VuZCIgc3Ryb2tlLXdpZHRoPSIxMiIgdHJhbnNmb3JtPSJtYXRyaXgoLjA2LDAsMCwtLjA2LDAsODQyKSIvPiYjeGE7PHBhdGggZD0iTTM1NTIgMTAzMjBWMTA1NDciIHN0cm9rZT0iIzAwMDAwMCIgZmlsbD0ibm9uZSIgc3Ryb2tlLWxpbmVqb2luPSJyb3VuZCIgc3Ryb2tlLWxpbmVjYXA9InJvdW5kIiBzdHJva2Utd2lkdGg9IjEyIiB0cmFuc2Zvcm09Im1hdHJpeCguMDYsMCwwLC0uMDYsMCw4NDIpIi8+JiN4YTs8cGF0aCBkPSJNMTcwNiAxMTQzNUg0MjU3IiBzdHJva2U9IiMwMDAwMDAiIGZpbGw9Im5vbmUiIHN0cm9rZS1saW5lam9pbj0icm91bmQiIHN0cm9rZS1saW5lY2FwPSJyb3VuZCIgc3Ryb2tlLXdpZHRoPSIxMiIgdHJhbnNmb3JtPSJtYXRyaXgoLjA2LDAsMCwtLjA2LDAsODQyKSIvPiYjeGE7PC9nPiYjeGE7PC9nPiYjeGE7PGcgY2xpcC1wYXRoPSJ1cmwoI2NsaXBfMSkiPiYjeGE7PHBhdGggZD0iTTM3LjUgMEMzNy41IDIwLjcxMDY4IDIwLjcxMDY4IDM3LjUgMCAzNy41IiBzdHJva2U9IiMwMDAwMDAiIGZpbGw9Im5vbmUiIHN0cm9rZS1saW5lam9pbj0icm91bmQiIHN0cm9rZS1saW5lY2FwPSJyb3VuZCIgc3Ryb2tlLXdpZHRoPSIxMiIgdHJhbnNmb3JtPSJtYXRyaXgoLS4wNiwtMCwwLC4wNiw5OC45NywzODYuMDkpIi8+JiN4YTs8cGF0aCBkPSJNMTY0OSA3NTYwSDQzMTQiIHN0cm9rZT0iIzAwMDAwMCIgZmlsbD0ibm9uZSIgc3Ryb2tlLWxpbmVqb2luPSJyb3VuZCIgc3Ryb2tlLWxpbmVjYXA9InJvdW5kIiBzdHJva2Utd2lkdGg9IjEyIiB0cmFuc2Zvcm09Im1hdHJpeCguMDYsMCwwLC0uMDYsMCw4NDIpIi8+JiN4YTs8cGF0aCBkPSJNMzcuNSAwQzM3LjUgMjAuNzEwNjggMjAuNzEwNjggMzcuNSAwIDM3LjUiIHN0cm9rZT0iIzAwMDAwMCIgZmlsbD0ibm9uZSIgc3Ryb2tlLWxpbmVqb2luPSJyb3VuZCIgc3Ryb2tlLWxpbmVjYXA9InJvdW5kIiBzdHJva2Utd2lkdGg9IjEyIiB0cmFuc2Zvcm09Im1hdHJpeCgwLC4wNiwuMDYsMCwyNTguODcsMzg2LjA5KSIvPiYjeGE7PHBhdGggZD0iTTQzNTIgNzU5OFY4MzY0SDQyNTdWNzY1NUgxNzA2VjgzNjRIMTYxMVY3NTk4IiBzdHJva2U9IiMwMDAwMDAiIGZpbGw9Im5vbmUiIHN0cm9rZS1saW5lam9pbj0icm91bmQiIHN0cm9rZS1saW5lY2FwPSJyb3VuZCIgc3Ryb2tlLXdpZHRoPSIxMiIgdHJhbnNmb3JtPSJtYXRyaXgoLjA2LDAsMCwtLjA2LDAsODQyKSIvPiYjeGE7PHBhdGggZD0iTTQyNTcgODM2NEg0MjU2IDQyNTEgNDI0NCA0MjM0IDQyMjIgNDIxMCAxNzUzIDE3NDEgMTcyOSAxNzE5IDE3MTIgMTcwNyAxNzA2IiBzdHJva2U9IiMwMDAwMDAiIGZpbGw9Im5vbmUiIHN0cm9rZS1saW5lam9pbj0icm91bmQiIHN0cm9rZS1saW5lY2FwPSJyb3VuZCIgc3Ryb2tlLXdpZHRoPSIxMiIgdHJhbnNmb3JtPSJtYXRyaXgoLjA2LDAsMCwtLjA2LDAsODQyKSIvPiYjeGE7PHBhdGggZD0iTTE3MDYgNzcxMUg0MjU3IiBzdHJva2U9IiMwMDAwMDAiIGZpbGw9Im5vbmUiIHN0cm9rZS1saW5lam9pbj0icm91bmQiIHN0cm9rZS1saW5lY2FwPSJyb3VuZCIgc3Ryb2tlLXdpZHRoPSIxMiIgdHJhbnNmb3JtPSJtYXRyaXgoLjA2LDAsMCwtLjA2LDAsODQyKSIvPiYjeGE7PC9nPiYjeGE7PGcgY2xpcC1wYXRoPSJ1cmwoI2NsaXBfMikiPiYjeGE7PHBhdGggZD0iTTE1NS41IDBDMTU1LjUgODUuODgwMjggODUuODgwMjggMTU1LjUgMCAxNTUuNS04NS44ODAyOCAxNTUuNS0xNTUuNSA4NS44ODAyOC0xNTUuNSAwLTE1NS41LTg1Ljg4MDI4LTg1Ljg4MDI4LTE1NS41IDAtMTU1LjUgODUuODgwMjgtMTU1LjUgMTU1LjUtODUuODgwMjggMTU1LjUgMCIgc3Ryb2tlPSIjMDAwMDAwIiBmaWxsPSJub25lIiBzdHJva2UtbGluZWpvaW49InJvdW5kIiBzdHJva2UtbGluZWNhcD0icm91bmQiIHN0cm9rZS13aWR0aD0iMTIiIHRyYW5zZm9ybT0ibWF0cml4KC0uMDYsLTAsMCwuMDYsNDU3LjU5LDEzNi43OTAwNCkiLz4mI3hhOzxwYXRoIGQ9Ik0xNTUuNSAwQzE1NS41IDg1Ljg4MDI4IDg1Ljg4MDI4IDE1NS41IDAgMTU1LjUtODUuODgwMjggMTU1LjUtMTU1LjUgODUuODgwMjgtMTU1LjUgMC0xNTUuNS04NS44ODAyOC04NS44ODAyOC0xNTUuNSAwLTE1NS41IDg1Ljg4MDI4LTE1NS41IDE1NS41LTg1Ljg4MDI4IDE1NS41IDAiIHN0cm9rZT0iIzAwMDAwMCIgZmlsbD0ibm9uZSIgc3Ryb2tlLWxpbmVqb2luPSJyb3VuZCIgc3Ryb2tlLWxpbmVjYXA9InJvdW5kIiBzdHJva2Utd2lkdGg9IjEyIiB0cmFuc2Zvcm09Im1hdHJpeCgtLjA2LC0wLDAsLjA2LDM3MS4xMywxMzYuNzkwMDQpIi8+JiN4YTs8cGF0aCBkPSJNMTU1LjUgMEMxNTUuNSA4NS44ODAyOCA4NS44ODAyOCAxNTUuNSAwIDE1NS41LTg1Ljg4MDI4IDE1NS41LTE1NS41IDg1Ljg4MDI4LTE1NS41IDAtMTU1LjUtODUuODgwMjgtODUuODgwMjgtMTU1LjUgMC0xNTUuNSA4NS44ODAyOC0xNTUuNSAxNTUuNS04NS44ODAyOCAxNTUuNSAwIiBzdHJva2U9IiMwMDAwMDAiIGZpbGw9Im5vbmUiIHN0cm9rZS1saW5lam9pbj0icm91bmQiIHN0cm9rZS1saW5lY2FwPSJyb3VuZCIgc3Ryb2tlLXdpZHRoPSIxMiIgdHJhbnNmb3JtPSJtYXRyaXgoLS4wNiwtMCwwLC4wNiw0MjguNzI5OTksMTM2Ljc5MDA0KSIvPiYjeGE7PHBhdGggZD0iTTE1NS41IDBDMTU1LjUgODUuODgwMjggODUuODgwMjggMTU1LjUgMCAxNTUuNS04NS44ODAyOCAxNTUuNS0xNTUuNSA4NS44ODAyOC0xNTUuNSAwLTE1NS41LTg1Ljg4MDI4LTg1Ljg4MDI4LTE1NS41IDAtMTU1LjUgODUuODgwMjgtMTU1LjUgMTU1LjUtODUuODgwMjggMTU1LjUgMCIgc3Ryb2tlPSIjMDAwMDAwIiBmaWxsPSJub25lIiBzdHJva2UtbGluZWpvaW49InJvdW5kIiBzdHJva2UtbGluZWNhcD0icm91bmQiIHN0cm9rZS13aWR0aD0iMTIiIHRyYW5zZm9ybT0ibWF0cml4KC0uMDYsLTAsMCwuMDYsMzk5LjkzLDEzNi43OTAwNCkiLz4mI3hhOzxwYXRoIGQ9Ik05NC41IDBDOTQuNSA1Mi4xOTA5MSA1Mi4xOTA5MSA5NC41IDAgOTQuNSIgc3Ryb2tlPSIjMDAwMDAwIiBmaWxsPSJub25lIiBzdHJva2UtbGluZWpvaW49InJvdW5kIiBzdHJva2UtbGluZWNhcD0icm91bmQiIHN0cm9rZS13aWR0aD0iMTIiIHRyYW5zZm9ybT0ibWF0cml4KC0uMDYsLTAsMCwuMDYsMzM3LjcxLDIzNy4xMDk5OSkiLz4mI3hhOzxwYXRoIGQ9Ik01NTMzIDEyMDA4VjEwMDgxIiBzdHJva2U9IiMwMDAwMDAiIGZpbGw9Im5vbmUiIHN0cm9rZS1saW5lam9pbj0icm91bmQiIHN0cm9rZS1saW5lY2FwPSJyb3VuZCIgc3Ryb2tlLXdpZHRoPSIxMiIgdHJhbnNmb3JtPSJtYXRyaXgoLjA2LDAsMCwtLjA2LDAsODQyKSIvPiYjeGE7PHBhdGggZD0iTTAtOTQuNUM1Mi4xOTA5MS05NC41IDk0LjUtNTIuMTkwOTEgOTQuNSAwIiBzdHJva2U9IiMwMDAwMDAiIGZpbGw9Im5vbmUiIHN0cm9rZS1saW5lam9pbj0icm91bmQiIHN0cm9rZS1saW5lY2FwPSJyb3VuZCIgc3Ryb2tlLXdpZHRoPSIxMiIgdHJhbnNmb3JtPSJtYXRyaXgoLS4wNiwtMCwwLC4wNiwzMzcuNzEsMTIxLjQ4OTk5KSIvPiYjeGE7PHBhdGggZD0iTTgxNzkgMTIxMDNINTYyOCIgc3Ryb2tlPSIjMDAwMDAwIiBmaWxsPSJub25lIiBzdHJva2UtbGluZWpvaW49InJvdW5kIiBzdHJva2UtbGluZWNhcD0icm91bmQiIHN0cm9rZS13aWR0aD0iMTIiIHRyYW5zZm9ybT0ibWF0cml4KC4wNiwwLDAsLS4wNiwwLDg0MikiLz4mI3hhOzxwYXRoIGQ9Ik04Mjc0IDEyMDA4LjVDODI3NCAxMjA2MC42OSA4MjMxLjY5IDEyMTAzIDgxNzkuNSAxMjEwMyIgc3Ryb2tlPSIjMDAwMDAwIiBmaWxsPSJub25lIiBzdHJva2UtbGluZWpvaW49InJvdW5kIiBzdHJva2UtbGluZWNhcD0icm91bmQiIHN0cm9rZS13aWR0aD0iMTIiIHRyYW5zZm9ybT0ibWF0cml4KC4wNiwwLDAsLS4wNiwwLDg0MikiLz4mI3hhOzxwYXRoIGQ9Ik04Mjc0IDEwMDgxVjEyMDA4IiBzdHJva2U9IiMwMDAwMDAiIGZpbGw9Im5vbmUiIHN0cm9rZS1saW5lam9pbj0icm91bmQiIHN0cm9rZS1saW5lY2FwPSJyb3VuZCIgc3Ryb2tlLXdpZHRoPSIxMiIgdHJhbnNmb3JtPSJtYXRyaXgoLjA2LDAsMCwtLjA2LDAsODQyKSIvPiYjeGE7PHBhdGggZD0iTTgxNzkuNSA5OTg3QzgyMzEuNjkgOTk4NyA4Mjc0IDEwMDI5LjMxIDgyNzQgMTAwODEuNSIgc3Ryb2tlPSIjMDAwMDAwIiBmaWxsPSJub25lIiBzdHJva2UtbGluZWpvaW49InJvdW5kIiBzdHJva2UtbGluZWNhcD0icm91bmQiIHN0cm9rZS13aWR0aD0iMTIiIHRyYW5zZm9ybT0ibWF0cml4KC4wNiwwLDAsLS4wNiwwLDg0MikiLz4mI3hhOzxwYXRoIGQ9Ik01NjI4IDk5ODZIODE3OSIgc3Ryb2tlPSIjMDAwMDAwIiBmaWxsPSJub25lIiBzdHJva2UtbGluZWpvaW49InJvdW5kIiBzdHJva2UtbGluZWNhcD0icm91bmQiIHN0cm9rZS13aWR0aD0iMTIiIHRyYW5zZm9ybT0ibWF0cml4KC4wNiwwLDAsLS4wNiwwLDg0MikiLz4mI3hhOzwvZz4mI3hhOzxnIGNsaXAtcGF0aD0idXJsKCNjbGlwXzMpIj4mI3hhOzxwYXRoIGQ9Ik04MjM2IDgxMDlIODIzNCA4MjI5IDgyMjAgODIwOCA4MTk0IDgxNzkgNTYyOCA1NjEzIDU1OTkgNTU4NyA1NTc4IDU1NzMgNTU3MSIgc3Ryb2tlPSIjMDAwMDAwIiBmaWxsPSJub25lIiBzdHJva2UtbGluZWpvaW49InJvdW5kIiBzdHJva2UtbGluZWNhcD0icm91bmQiIHN0cm9rZS13aWR0aD0iMTIiIHRyYW5zZm9ybT0ibWF0cml4KC4wNiwwLDAsLS4wNiwwLDg0MikiLz4mI3hhOzxwYXRoIGQ9Ik0zNy41IDBDMzcuNSAyMC43MTA2OCAyMC43MTA2OCAzNy41IDAgMzcuNSIgc3Ryb2tlPSIjMDAwMDAwIiBmaWxsPSJub25lIiBzdHJva2UtbGluZWpvaW49InJvdW5kIiBzdHJva2UtbGluZWNhcD0icm91bmQiIHN0cm9rZS13aWR0aD0iMTIiIHRyYW5zZm9ybT0ibWF0cml4KDAsLS4wNiwtLjA2LC0wLDMzNC4yODk5OSwzNTcuNzEwMDMpIi8+JiN4YTs8cGF0aCBkPSJNMCAzNy41Qy0yMC43MTA2OCAzNy41LTM3LjUgMjAuNzEwNjgtMzcuNSAwIiBzdHJva2U9IiMwMDAwMDAiIGZpbGw9Im5vbmUiIHN0cm9rZS1saW5lam9pbj0icm91bmQiIHN0cm9rZS1saW5lY2FwPSJyb3VuZCIgc3Ryb2tlLXdpZHRoPSIxMiIgdHJhbnNmb3JtPSJtYXRyaXgoMCwuMDYsLjA2LDAsNDk0LjE5LDM1Ny43MTAwMykiLz4mI3hhOzxwYXRoIGQ9Ik01NjI4IDgwMTRIODE3OSA4MTk4IDgyMTYgODIzMiA4MjQ2IDgyNTggODI2NyA4MjcyIDgyNzRWODA3MSIgc3Ryb2tlPSIjMDAwMDAwIiBmaWxsPSJub25lIiBzdHJva2UtbGluZWpvaW49InJvdW5kIiBzdHJva2UtbGluZWNhcD0icm91bmQiIHN0cm9rZS13aWR0aD0iMTIiIHRyYW5zZm9ybT0ibWF0cml4KC4wNiwwLDAsLS4wNiwwLDg0MikiLz4mI3hhOzxwYXRoIGQ9Ik01NTMzIDgwNzFWODAxNEg1NTM1IDU1NDAgNTU0OSA1NTYxIDU1NzUgNTU5MSA1NjA5IDU2MjhWNzkxOUg4MTc5VjgwMTQiIHN0cm9rZT0iIzAwMDAwMCIgZmlsbD0ibm9uZSIgc3Ryb2tlLWxpbmVqb2luPSJyb3VuZCIgc3Ryb2tlLWxpbmVjYXA9InJvdW5kIiBzdHJva2Utd2lkdGg9IjEyIiB0cmFuc2Zvcm09Im1hdHJpeCguMDYsMCwwLC0uMDYsMCw4NDIpIi8+JiN4YTs8L2c+JiN4YTs8ZyBjbGlwLXBhdGg9InVybCgjY2xpcF80KSI+JiN4YTs8Zz4mI3hhOzxwYXRoIGQ9Ik0xNjEyIDgxODggMTcwNiA4MjgyIiBzdHJva2U9IiMwMDAwMDAiIGZpbGw9Im5vbmUiIHN0cm9rZS1saW5lam9pbj0icm91bmQiIHN0cm9rZS1saW5lY2FwPSJyb3VuZCIgc3Ryb2tlLXdpZHRoPSIxMiIgdHJhbnNmb3JtPSJtYXRyaXgoLjA2LDAsMCwtLjA2LDAsODQyKSIvPiYjeGE7PHBhdGggZD0iTTE2MTIgNzk3NiAxNzA2IDgwNzAiIHN0cm9rZT0iIzAwMDAwMCIgZmlsbD0ibm9uZSIgc3Ryb2tlLWxpbmVqb2luPSJyb3VuZCIgc3Ryb2tlLWxpbmVjYXA9InJvdW5kIiBzdHJva2Utd2lkdGg9IjEyIiB0cmFuc2Zvcm09Im1hdHJpeCguMDYsMCwwLC0uMDYsMCw4NDIpIi8+JiN4YTs8cGF0aCBkPSJNMTYxMiA3NzYzIDE3MDYgNzg1OCIgc3Ryb2tlPSIjMDAwMDAwIiBmaWxsPSJub25lIiBzdHJva2UtbGluZWpvaW49InJvdW5kIiBzdHJva2UtbGluZWNhcD0icm91bmQiIHN0cm9rZS13aWR0aD0iMTIiIHRyYW5zZm9ybT0ibWF0cml4KC4wNiwwLDAsLS4wNiwwLDg0MikiLz4mI3hhOzxwYXRoIGQ9Ik0xNjI4IDc1NjcgMTcxNiA3NjU1IiBzdHJva2U9IiMwMDAwMDAiIGZpbGw9Im5vbmUiIHN0cm9rZS1saW5lam9pbj0icm91bmQiIHN0cm9rZS1saW5lY2FwPSJyb3VuZCIgc3Ryb2tlLXdpZHRoPSIxMiIgdHJhbnNmb3JtPSJtYXRyaXgoLjA2LDAsMCwtLjA2LDAsODQyKSIvPiYjeGE7PHBhdGggZD0iTTE4MzMgNzU2MSAxOTI4IDc2NTUiIHN0cm9rZT0iIzAwMDAwMCIgZmlsbD0ibm9uZSIgc3Ryb2tlLWxpbmVqb2luPSJyb3VuZCIgc3Ryb2tlLWxpbmVjYXA9InJvdW5kIiBzdHJva2Utd2lkdGg9IjEyIiB0cmFuc2Zvcm09Im1hdHJpeCguMDYsMCwwLC0uMDYsMCw4NDIpIi8+JiN4YTs8cGF0aCBkPSJNMjA0NSA3NTYxIDIxNDAgNzY1NSIgc3Ryb2tlPSIjMDAwMDAwIiBmaWxsPSJub25lIiBzdHJva2UtbGluZWpvaW49InJvdW5kIiBzdHJva2UtbGluZWNhcD0icm91bmQiIHN0cm9rZS13aWR0aD0iMTIiIHRyYW5zZm9ybT0ibWF0cml4KC4wNiwwLDAsLS4wNiwwLDg0MikiLz4mI3hhOzxwYXRoIGQ9Ik0yMjU4IDc1NjEgMjM1MiA3NjU1IiBzdHJva2U9IiMwMDAwMDAiIGZpbGw9Im5vbmUiIHN0cm9rZS1saW5lam9pbj0icm91bmQiIHN0cm9rZS1saW5lY2FwPSJyb3VuZCIgc3Ryb2tlLXdpZHRoPSIxMiIgdHJhbnNmb3JtPSJtYXRyaXgoLjA2LDAsMCwtLjA2LDAsODQyKSIvPiYjeGE7PHBhdGggZD0iTTI0NzAgNzU2MSAyNTY0IDc2NTUiIHN0cm9rZT0iIzAwMDAwMCIgZmlsbD0ibm9uZSIgc3Ryb2tlLWxpbmVqb2luPSJyb3VuZCIgc3Ryb2tlLWxpbmVjYXA9InJvdW5kIiBzdHJva2Utd2lkdGg9IjEyIiB0cmFuc2Zvcm09Im1hdHJpeCguMDYsMCwwLC0uMDYsMCw4NDIpIi8+JiN4YTs8cGF0aCBkPSJNMjY4MiA3NTYxIDI3NzYgNzY1NSIgc3Ryb2tlPSIjMDAwMDAwIiBmaWxsPSJub25lIiBzdHJva2UtbGluZWpvaW49InJvdW5kIiBzdHJva2UtbGluZWNhcD0icm91bmQiIHN0cm9rZS13aWR0aD0iMTIiIHRyYW5zZm9ybT0ibWF0cml4KC4wNiwwLDAsLS4wNiwwLDg0MikiLz4mI3hhOzxwYXRoIGQ9Ik0yODk0IDc1NjEgMjk4OCA3NjU1IiBzdHJva2U9IiMwMDAwMDAiIGZpbGw9Im5vbmUiIHN0cm9rZS1saW5lam9pbj0icm91bmQiIHN0cm9rZS1saW5lY2FwPSJyb3VuZCIgc3Ryb2tlLXdpZHRoPSIxMiIgdHJhbnNmb3JtPSJtYXRyaXgoLjA2LDAsMCwtLjA2LDAsODQyKSIvPiYjeGE7PHBhdGggZD0iTTMxMDYgNzU2MSAzMjAxIDc2NTUiIHN0cm9rZT0iIzAwMDAwMCIgZmlsbD0ibm9uZSIgc3Ryb2tlLWxpbmVqb2luPSJyb3VuZCIgc3Ryb2tlLWxpbmVjYXA9InJvdW5kIiBzdHJva2Utd2lkdGg9IjEyIiB0cmFuc2Zvcm09Im1hdHJpeCguMDYsMCwwLC0uMDYsMCw4NDIpIi8+JiN4YTs8cGF0aCBkPSJNMzMxOCA3NTYxIDM0MTMgNzY1NSIgc3Ryb2tlPSIjMDAwMDAwIiBmaWxsPSJub25lIiBzdHJva2UtbGluZWpvaW49InJvdW5kIiBzdHJva2UtbGluZWNhcD0icm91bmQiIHN0cm9rZS13aWR0aD0iMTIiIHRyYW5zZm9ybT0ibWF0cml4KC4wNiwwLDAsLS4wNiwwLDg0MikiLz4mI3hhOzxwYXRoIGQ9Ik0zNTMwIDc1NjEgMzYyNSA3NjU1IiBzdHJva2U9IiMwMDAwMDAiIGZpbGw9Im5vbmUiIHN0cm9rZS1saW5lam9pbj0icm91bmQiIHN0cm9rZS1saW5lY2FwPSJyb3VuZCIgc3Ryb2tlLXdpZHRoPSIxMiIgdHJhbnNmb3JtPSJtYXRyaXgoLjA2LDAsMCwtLjA2LDAsODQyKSIvPiYjeGE7PHBhdGggZD0iTTQyNTcgODI4OCA0MzMzIDgzNjQiIHN0cm9rZT0iIzAwMDAwMCIgZmlsbD0ibm9uZSIgc3Ryb2tlLWxpbmVqb2luPSJyb3VuZCIgc3Ryb2tlLWxpbmVjYXA9InJvdW5kIiBzdHJva2Utd2lkdGg9IjEyIiB0cmFuc2Zvcm09Im1hdHJpeCguMDYsMCwwLC0uMDYsMCw4NDIpIi8+JiN4YTs8cGF0aCBkPSJNMzc0MiA3NTYxIDM4MzcgNzY1NSIgc3Ryb2tlPSIjMDAwMDAwIiBmaWxsPSJub25lIiBzdHJva2UtbGluZWpvaW49InJvdW5kIiBzdHJva2UtbGluZWNhcD0icm91bmQiIHN0cm9rZS13aWR0aD0iMTIiIHRyYW5zZm9ybT0ibWF0cml4KC4wNiwwLDAsLS4wNiwwLDg0MikiLz4mI3hhOzxwYXRoIGQ9Ik00MjU3IDgwNzYgNDM1MiA4MTcwIiBzdHJva2U9IiMwMDAwMDAiIGZpbGw9Im5vbmUiIHN0cm9rZS1saW5lam9pbj0icm91bmQiIHN0cm9rZS1saW5lY2FwPSJyb3VuZCIgc3Ryb2tlLXdpZHRoPSIxMiIgdHJhbnNmb3JtPSJtYXRyaXgoLjA2LDAsMCwtLjA2LDAsODQyKSIvPiYjeGE7PHBhdGggZD0iTTM5NTUgNzU2MSA0MDQ5IDc2NTUiIHN0cm9rZT0iIzAwMDAwMCIgZmlsbD0ibm9uZSIgc3Ryb2tlLWxpbmVqb2luPSJyb3VuZCIgc3Ryb2tlLWxpbmVjYXA9InJvdW5kIiBzdHJva2Utd2lkdGg9IjEyIiB0cmFuc2Zvcm09Im1hdHJpeCguMDYsMCwwLC0uMDYsMCw4NDIpIi8+JiN4YTs8cGF0aCBkPSJNNDI1NyA3ODYzIDQzNTIgNzk1OCIgc3Ryb2tlPSIjMDAwMDAwIiBmaWxsPSJub25lIiBzdHJva2UtbGluZWpvaW49InJvdW5kIiBzdHJva2UtbGluZWNhcD0icm91bmQiIHN0cm9rZS13aWR0aD0iMTIiIHRyYW5zZm9ybT0ibWF0cml4KC4wNiwwLDAsLS4wNiwwLDg0MikiLz4mI3hhOzxwYXRoIGQ9Ik00MTY3IDc1NjEgNDM1MiA3NzQ2IiBzdHJva2U9IiMwMDAwMDAiIGZpbGw9Im5vbmUiIHN0cm9rZS1saW5lam9pbj0icm91bmQiIHN0cm9rZS1saW5lY2FwPSJyb3VuZCIgc3Ryb2tlLXdpZHRoPSIxMiIgdHJhbnNmb3JtPSJtYXRyaXgoLjA2LDAsMCwtLjA2LDAsODQyKSIvPiYjeGE7PC9nPiYjeGE7PGc+JiN4YTs8cGF0aCBkPSJNMTQ5NCAxMTAzOUgxNzMwIiBzdHJva2U9IiMwMDAwMDAiIGZpbGw9Im5vbmUiIHN0cm9rZS1saW5lam9pbj0icm91bmQiIHN0cm9rZS1saW5lY2FwPSJyb3VuZCIgc3Ryb2tlLXdpZHRoPSIyNCIgdHJhbnNmb3JtPSJtYXRyaXgoLjA2LDAsMCwtLjA2LDAsODQyKSIvPiYjeGE7PHBhdGggZD0iTTQ0NzAgMTEwMzlINDIzNCIgc3Ryb2tlPSIjMDAwMDAwIiBmaWxsPSJub25lIiBzdHJva2UtbGluZWpvaW49InJvdW5kIiBzdHJva2UtbGluZWNhcD0icm91bmQiIHN0cm9rZS13aWR0aD0iMjQiIHRyYW5zZm9ybT0ibWF0cml4KC4wNiwwLDAsLS4wNiwwLDg0MikiLz4mI3hhOzxwYXRoIGQ9Ik0xNzMwIDExMDM5SDIzMDciIHN0cm9rZT0iIzAwMDAwMCIgZmlsbD0ibm9uZSIgc3Ryb2tlLWxpbmVqb2luPSJyb3VuZCIgc3Ryb2tlLWxpbmVjYXA9InJvdW5kIiBzdHJva2Utd2lkdGg9IjEyIiB0cmFuc2Zvcm09Im1hdHJpeCguMDYsMCwwLC0uMDYsMCw4NDIpIi8+JiN4YTs8cGF0aCBkPSJNMjQxOSAxMTAzOUgyNTMyIiBzdHJva2U9IiMwMDAwMDAiIGZpbGw9Im5vbmUiIHN0cm9rZS1saW5lam9pbj0icm91bmQiIHN0cm9rZS1saW5lY2FwPSJyb3VuZCIgc3Ryb2tlLXdpZHRoPSIxMiIgdHJhbnNmb3JtPSJtYXRyaXgoLjA2LDAsMCwtLjA2LDAsODQyKSIvPiYjeGE7PHBhdGggZD0iTTI2NDQgMTEwMzlIMzMxOSIgc3Ryb2tlPSIjMDAwMDAwIiBmaWxsPSJub25lIiBzdHJva2UtbGluZWpvaW49InJvdW5kIiBzdHJva2UtbGluZWNhcD0icm91bmQiIHN0cm9rZS13aWR0aD0iMTIiIHRyYW5zZm9ybT0ibWF0cml4KC4wNiwwLDAsLS4wNiwwLDg0MikiLz4mI3hhOzxwYXRoIGQ9Ik0zNDMyIDExMDM5SDM1NDQiIHN0cm9rZT0iIzAwMDAwMCIgZmlsbD0ibm9uZSIgc3Ryb2tlLWxpbmVqb2luPSJyb3VuZCIgc3Ryb2tlLWxpbmVjYXA9InJvdW5kIiBzdHJva2Utd2lkdGg9IjEyIiB0cmFuc2Zvcm09Im1hdHJpeCguMDYsMCwwLC0uMDYsMCw4NDIpIi8+JiN4YTs8cGF0aCBkPSJNMzY1NyAxMTAzOUg0MjM0IiBzdHJva2U9IiMwMDAwMDAiIGZpbGw9Im5vbmUiIHN0cm9rZS1saW5lam9pbj0icm91bmQiIHN0cm9rZS1saW5lY2FwPSJyb3VuZCIgc3Ryb2tlLXdpZHRoPSIxMiIgdHJhbnNmb3JtPSJtYXRyaXgoLjA2LDAsMCwtLjA2LDAsODQyKSIvPiYjeGE7PHBhdGggZD0iTTE2MTIgMTA4MDJWMTA1NjYiIHN0cm9rZT0iIzAwMDAwMCIgZmlsbD0ibm9uZSIgc3Ryb2tlLWxpbmVqb2luPSJyb3VuZCIgc3Ryb2tlLWxpbmVjYXA9InJvdW5kIiBzdHJva2Utd2lkdGg9IjEyIiB0cmFuc2Zvcm09Im1hdHJpeCguMDYsMCwwLC0uMDYsMCw4NDIpIi8+JiN4YTs8cGF0aCBkPSJNMTU3MiAxMDgwMiAxNjEyIDExMDM5IDE2NTEgMTA4MDJaIiB0cmFuc2Zvcm09Im1hdHJpeCguMDYsMCwwLC0uMDYsMCw4NDIpIi8+JiN4YTs8cGF0aCBkPSJNMTU3MiAxMDgwMiAxNjEyIDExMDM5IDE2NTEgMTA4MDJaIiBzdHJva2U9IiMwMDAwMDAiIGZpbGw9Im5vbmUiIHN0cm9rZS1saW5lam9pbj0ibWl0ZXIiIHN0cm9rZS1taXRlcmxpbWl0PSIxMCIgc3Ryb2tlLWxpbmVjYXA9InJvdW5kIiBzdHJva2Utd2lkdGg9IjAiIHRyYW5zZm9ybT0ibWF0cml4KC4wNiwwLDAsLS4wNiwwLDg0MikiLz4mI3hhOzxwYXRoIGQ9Ik00MzUyIDEwODAyVjEwNTY2IiBzdHJva2U9IiMwMDAwMDAiIGZpbGw9Im5vbmUiIHN0cm9rZS1saW5lam9pbj0icm91bmQiIHN0cm9rZS1saW5lY2FwPSJyb3VuZCIgc3Ryb2tlLXdpZHRoPSIxMiIgdHJhbnNmb3JtPSJtYXRyaXgoLjA2LDAsMCwtLjA2LDAsODQyKSIvPiYjeGE7PHBhdGggZD0iTTQzMTMgMTA4MDIgNDM1MiAxMTAzOSA0MzkxIDEwODAyWiIgdHJhbnNmb3JtPSJtYXRyaXgoLjA2LDAsMCwtLjA2LDAsODQyKSIvPiYjeGE7PHBhdGggZD0iTTQzMTMgMTA4MDIgNDM1MiAxMTAzOSA0MzkxIDEwODAyWiIgc3Ryb2tlPSIjMDAwMDAwIiBmaWxsPSJub25lIiBzdHJva2UtbGluZWpvaW49Im1pdGVyIiBzdHJva2UtbWl0ZXJsaW1pdD0iMTAiIHN0cm9rZS1saW5lY2FwPSJyb3VuZCIgc3Ryb2tlLXdpZHRoPSIwIiB0cmFuc2Zvcm09Im1hdHJpeCguMDYsMCwwLC0uMDYsMCw4NDIpIi8+JiN4YTs8L2c+JiN4YTs8L2c+JiN4YTs8ZyBjbGlwLXBhdGg9InVybCgjY2xpcF81KSI+JiN4YTs8Zz4mI3hhOzx0ZXh0IGZvbnQtZmFtaWx5PSJBcmlhbE1UIiBmb250LXNpemU9IjMyOS45ODgiIHRyYW5zZm9ybT0ibWF0cml4KC4wNiAwIC0wIC4wNiAwIDg0MikiIHhtbDpzcGFjZT0icHJlc2VydmUiPjx0c3BhbiB4PSIxMzk5IiB5PSItMTA5MjEiPuKAiTwvdHNwYW4+PC90ZXh0PiYjeGE7PC9nPiYjeGE7PC9nPiYjeGE7PGcgY2xpcC1wYXRoPSJ1cmwoI2NsaXBfNikiPiYjeGE7PHRleHQgZm9udC1mYW1pbHk9IkFyaWFsTVQiIGZvbnQtc2l6ZT0iMzI5Ljk4OCIgdHJhbnNmb3JtPSJtYXRyaXgoLjA2IDAgLTAgLjA2IDAgODQyKSIgeG1sOnNwYWNlPSJwcmVzZXJ2ZSI+PHRzcGFuIHg9IjQ1NjQiIHk9Ii0xMDkyMSI+4oCJPC90c3Bhbj48L3RleHQ+JiN4YTs8Zz4mI3hhOzxwYXRoIGQ9Ik0xNjEyIDk5NzZWOTU2NiIgc3Ryb2tlPSIjMDAwMDAwIiBmaWxsPSJub25lIiBzdHJva2UtbGluZWpvaW49InJvdW5kIiBzdHJva2UtbGluZWNhcD0icm91bmQiIHN0cm9rZS13aWR0aD0iMTIiIHRyYW5zZm9ybT0ibWF0cml4KC4wNiwwLDAsLS4wNiwwLDg0MikiLz4mI3hhOzxwYXRoIGQ9Ik00MzUyIDk5NzZWOTU2NiIgc3Ryb2tlPSIjMDAwMDAwIiBmaWxsPSJub25lIiBzdHJva2UtbGluZWpvaW49InJvdW5kIiBzdHJva2UtbGluZWNhcD0icm91bmQiIHN0cm9rZS13aWR0aD0iMTIiIHRyYW5zZm9ybT0ibWF0cml4KC4wNiwwLDAsLS4wNiwwLDg0MikiLz4mI3hhOzxwYXRoIGQ9Ik0xNzc3IDk2NjVINDE4NyIgc3Ryb2tlPSIjMDAwMDAwIiBmaWxsPSJub25lIiBzdHJva2UtbGluZWpvaW49InJvdW5kIiBzdHJva2UtbGluZWNhcD0icm91bmQiIHN0cm9rZS13aWR0aD0iMTIiIHRyYW5zZm9ybT0ibWF0cml4KC4wNiwwLDAsLS4wNiwwLDg0MikiLz4mI3hhOzxwYXRoIGQ9Ik0xNzc3IDk2OTNWOTYzN0wxNjEyIDk2NjVaIiB0cmFuc2Zvcm09Im1hdHJpeCguMDYsMCwwLC0uMDYsMCw4NDIpIi8+JiN4YTs8cGF0aCBkPSJNMTc3NyA5NjkzVjk2MzdMMTYxMiA5NjY1WiIgc3Ryb2tlPSIjMDAwMDAwIiBmaWxsPSJub25lIiBzdHJva2UtbGluZWpvaW49Im1pdGVyIiBzdHJva2UtbWl0ZXJsaW1pdD0iMTAiIHN0cm9rZS1saW5lY2FwPSJyb3VuZCIgc3Ryb2tlLXdpZHRoPSIwIiB0cmFuc2Zvcm09Im1hdHJpeCguMDYsMCwwLC0uMDYsMCw4NDIpIi8+JiN4YTs8cGF0aCBkPSJNNDE4NyA5NjkzVjk2MzdMNDM1MiA5NjY1WiIgdHJhbnNmb3JtPSJtYXRyaXgoLjA2LDAsMCwtLjA2LDAsODQyKSIvPiYjeGE7PHBhdGggZD0iTTQxODcgOTY5M1Y5NjM3TDQzNTIgOTY2NVoiIHN0cm9rZT0iIzAwMDAwMCIgZmlsbD0ibm9uZSIgc3Ryb2tlLWxpbmVqb2luPSJtaXRlciIgc3Ryb2tlLW1pdGVybGltaXQ9IjEwIiBzdHJva2UtbGluZWNhcD0icm91bmQiIHN0cm9rZS13aWR0aD0iMCIgdHJhbnNmb3JtPSJtYXRyaXgoLjA2LDAsMCwtLjA2LDAsODQyKSIvPiYjeGE7PC9nPiYjeGE7PC9nPiYjeGE7PGcgY2xpcC1wYXRoPSJ1cmwoI2NsaXBfNykiPiYjeGE7PGc+JiN4YTs8dGV4dCBmb250LWZhbWlseT0iVmVyZGFuYSIgZm9udC1zaXplPSIyMjcuNDIzIiB0cmFuc2Zvcm09Im1hdHJpeCguMDYgMCAtMCAuMDYgMCA4NDIpIiB4bWw6c3BhY2U9InByZXNlcnZlIj48dHNwYW4geD0iMjgzNCAyOTc4LjY0MSIgeT0iLTk3MzUiPjU4PC90c3Bhbj48L3RleHQ+JiN4YTs8L2c+JiN4YTs8L2c+JiN4YTs8ZyBjbGlwLXBhdGg9InVybCgjY2xpcF84KSI+JiN4YTs8cGF0aCBkPSJNMTYwNyA5OTgwSDExOTkiIHN0cm9rZT0iIzAwMDAwMCIgZmlsbD0ibm9uZSIgc3Ryb2tlLWxpbmVqb2luPSJyb3VuZCIgc3Ryb2tlLWxpbmVjYXA9InJvdW5kIiBzdHJva2Utd2lkdGg9IjEyIiB0cmFuc2Zvcm09Im1hdHJpeCguMDYsMCwwLC0uMDYsMCw4NDIpIi8+JiN4YTs8cGF0aCBkPSJNMTYwNyAxMjA5N0gxMTk5IiBzdHJva2U9IiMwMDAwMDAiIGZpbGw9Im5vbmUiIHN0cm9rZS1saW5lam9pbj0icm91bmQiIHN0cm9rZS1saW5lY2FwPSJyb3VuZCIgc3Ryb2tlLXdpZHRoPSIxMiIgdHJhbnNmb3JtPSJtYXRyaXgoLjA2LDAsMCwtLjA2LDAsODQyKSIvPiYjeGE7PHBhdGggZD0iTTEyOTkgMTAxNDZWMTE5MzIiIHN0cm9rZT0iIzAwMDAwMCIgZmlsbD0ibm9uZSIgc3Ryb2tlLWxpbmVqb2luPSJyb3VuZCIgc3Ryb2tlLWxpbmVjYXA9InJvdW5kIiBzdHJva2Utd2lkdGg9IjEyIiB0cmFuc2Zvcm09Im1hdHJpeCguMDYsMCwwLC0uMDYsMCw4NDIpIi8+JiN4YTs8cGF0aCBkPSJNMTI3MSAxMDE0NkgxMzI2TDEyOTkgOTk4MFoiIHRyYW5zZm9ybT0ibWF0cml4KC4wNiwwLDAsLS4wNiwwLDg0MikiLz4mI3hhOzxwYXRoIGQ9Ik0xMjcxIDEwMTQ2SDEzMjZMMTI5OSA5OTgwWiIgc3Ryb2tlPSIjMDAwMDAwIiBmaWxsPSJub25lIiBzdHJva2UtbGluZWpvaW49Im1pdGVyIiBzdHJva2UtbWl0ZXJsaW1pdD0iMTAiIHN0cm9rZS1saW5lY2FwPSJyb3VuZCIgc3Ryb2tlLXdpZHRoPSIwIiB0cmFuc2Zvcm09Im1hdHJpeCguMDYsMCwwLC0uMDYsMCw4NDIpIi8+JiN4YTs8cGF0aCBkPSJNMTI3MSAxMTkzMkgxMzI2TDEyOTkgMTIwOTdaIiB0cmFuc2Zvcm09Im1hdHJpeCguMDYsMCwwLC0uMDYsMCw4NDIpIi8+JiN4YTs8cGF0aCBkPSJNMTI3MSAxMTkzMkgxMzI2TDEyOTkgMTIwOTdaIiBzdHJva2U9IiMwMDAwMDAiIGZpbGw9Im5vbmUiIHN0cm9rZS1saW5lam9pbj0ibWl0ZXIiIHN0cm9rZS1taXRlcmxpbWl0PSIxMCIgc3Ryb2tlLWxpbmVjYXA9InJvdW5kIiBzdHJva2Utd2lkdGg9IjAiIHRyYW5zZm9ybT0ibWF0cml4KC4wNiwwLDAsLS4wNiwwLDg0MikiLz4mI3hhOzx0ZXh0IGZvbnQtZmFtaWx5PSJWZXJkYW5hIiBmb250LXNpemU9IjIyNy40MjMiIHRyYW5zZm9ybT0ibWF0cml4KDAgLS4wNiAuMDYgMCAwIDg0MikiIHhtbDpzcGFjZT0icHJlc2VydmUiPjx0c3BhbiB4PSIxMDc4MyAxMDkyNy42NDEgMTEwNzIuMjgxIDExMTU1LjA2MyIgeT0iMTIyOSI+NDQuODwvdHNwYW4+PC90ZXh0PiYjeGE7PHBhdGggZD0iTTE3MDYgMTIwNTRWMTI0NzciIHN0cm9rZT0iIzAwMDAwMCIgZmlsbD0ibm9uZSIgc3Ryb2tlLWxpbmVqb2luPSJyb3VuZCIgc3Ryb2tlLWxpbmVjYXA9InJvdW5kIiBzdHJva2Utd2lkdGg9IjEyIiB0cmFuc2Zvcm09Im1hdHJpeCguMDYsMCwwLC0uMDYsMCw4NDIpIi8+JiN4YTs8cGF0aCBkPSJNNDI1NyAxMjA1NFYxMjQ3NyIgc3Ryb2tlPSIjMDAwMDAwIiBmaWxsPSJub25lIiBzdHJva2UtbGluZWpvaW49InJvdW5kIiBzdHJva2UtbGluZWNhcD0icm91bmQiIHN0cm9rZS13aWR0aD0iMTIiIHRyYW5zZm9ybT0ibWF0cml4KC4wNiwwLDAsLS4wNiwwLDg0MikiLz4mI3hhOzxwYXRoIGQ9Ik0xODcyIDEyMzc3SDQwOTIiIHN0cm9rZT0iIzAwMDAwMCIgZmlsbD0ibm9uZSIgc3Ryb2tlLWxpbmVqb2luPSJyb3VuZCIgc3Ryb2tlLWxpbmVjYXA9InJvdW5kIiBzdHJva2Utd2lkdGg9IjEyIiB0cmFuc2Zvcm09Im1hdHJpeCguMDYsMCwwLC0uMDYsMCw4NDIpIi8+JiN4YTs8cGF0aCBkPSJNMTg3MiAxMjQwNVYxMjM1MEwxNzA2IDEyMzc3WiIgdHJhbnNmb3JtPSJtYXRyaXgoLjA2LDAsMCwtLjA2LDAsODQyKSIvPiYjeGE7PHBhdGggZD0iTTE4NzIgMTI0MDVWMTIzNTBMMTcwNiAxMjM3N1oiIHN0cm9rZT0iIzAwMDAwMCIgZmlsbD0ibm9uZSIgc3Ryb2tlLWxpbmVqb2luPSJtaXRlciIgc3Ryb2tlLW1pdGVybGltaXQ9IjEwIiBzdHJva2UtbGluZWNhcD0icm91bmQiIHN0cm9rZS13aWR0aD0iMCIgdHJhbnNmb3JtPSJtYXRyaXgoLjA2LDAsMCwtLjA2LDAsODQyKSIvPiYjeGE7PHBhdGggZD0iTTQwOTIgMTI0MDVWMTIzNTBMNDI1NyAxMjM3N1oiIHRyYW5zZm9ybT0ibWF0cml4KC4wNiwwLDAsLS4wNiwwLDg0MikiLz4mI3hhOzxwYXRoIGQ9Ik00MDkyIDEyNDA1VjEyMzUwTDQyNTcgMTIzNzdaIiBzdHJva2U9IiMwMDAwMDAiIGZpbGw9Im5vbmUiIHN0cm9rZS1saW5lam9pbj0ibWl0ZXIiIHN0cm9rZS1taXRlcmxpbWl0PSIxMCIgc3Ryb2tlLWxpbmVjYXA9InJvdW5kIiBzdHJva2Utd2lkdGg9IjAiIHRyYW5zZm9ybT0ibWF0cml4KC4wNiwwLDAsLS4wNiwwLDg0MikiLz4mI3hhOzx0ZXh0IGZvbnQtZmFtaWx5PSJWZXJkYW5hIiBmb250LXNpemU9IjIyNy40MjMiIHRyYW5zZm9ybT0ibWF0cml4KC4wNiAwIC0wIC4wNiAwIDg0MikiIHhtbDpzcGFjZT0icHJlc2VydmUiPjx0c3BhbiB4PSIyODMyIDI5NzYuNjQxIiB5PSItMTI0NDciPjU0PC90c3Bhbj48L3RleHQ+JiN4YTs8cGF0aCBkPSJNMzU1MyAxMDY0N1YxMTIxNyIgc3Ryb2tlPSIjMDAwMDAwIiBmaWxsPSJub25lIiBzdHJva2UtbGluZWpvaW49InJvdW5kIiBzdHJva2UtbGluZWNhcD0icm91bmQiIHN0cm9rZS13aWR0aD0iMTIiIHRyYW5zZm9ybT0ibWF0cml4KC4wNiwwLDAsLS4wNiwwLDg0MikiLz4mI3hhOzxwYXRoIGQ9Ik0zODU1IDEwNjQ3VjExMjE3IiBzdHJva2U9IiMwMDAwMDAiIGZpbGw9Im5vbmUiIHN0cm9rZS1saW5lam9pbj0icm91bmQiIHN0cm9rZS1saW5lY2FwPSJyb3VuZCIgc3Ryb2tlLXdpZHRoPSIxMiIgdHJhbnNmb3JtPSJtYXRyaXgoLjA2LDAsMCwtLjA2LDAsODQyKSIvPiYjeGE7PHBhdGggZD0iTTMzODcgMTExMTdIMzIyMiIgc3Ryb2tlPSIjMDAwMDAwIiBmaWxsPSJub25lIiBzdHJva2UtbGluZWpvaW49InJvdW5kIiBzdHJva2UtbGluZWNhcD0icm91bmQiIHN0cm9rZS13aWR0aD0iMTIiIHRyYW5zZm9ybT0ibWF0cml4KC4wNiwwLDAsLS4wNiwwLDg0MikiLz4mI3hhOzxwYXRoIGQ9Ik00MDIwIDExMTE3SDQxODYiIHN0cm9rZT0iIzAwMDAwMCIgZmlsbD0ibm9uZSIgc3Ryb2tlLWxpbmVqb2luPSJyb3VuZCIgc3Ryb2tlLWxpbmVjYXA9InJvdW5kIiBzdHJva2Utd2lkdGg9IjEyIiB0cmFuc2Zvcm09Im1hdHJpeCguMDYsMCwwLC0uMDYsMCw4NDIpIi8+JiN4YTs8cGF0aCBkPSJNMzU1MyAxMTExN0gzODU1IiBzdHJva2U9IiMwMDAwMDAiIGZpbGw9Im5vbmUiIHN0cm9rZS1saW5lam9pbj0icm91bmQiIHN0cm9rZS1saW5lY2FwPSJyb3VuZCIgc3Ryb2tlLXdpZHRoPSIxMiIgdHJhbnNmb3JtPSJtYXRyaXgoLjA2LDAsMCwtLjA2LDAsODQyKSIvPiYjeGE7PHBhdGggZD0iTTMzODcgMTExNDVWMTEwOTBMMzU1MyAxMTExN1oiIHRyYW5zZm9ybT0ibWF0cml4KC4wNiwwLDAsLS4wNiwwLDg0MikiLz4mI3hhOzxwYXRoIGQ9Ik0zMzg3IDExMTQ1VjExMDkwTDM1NTMgMTExMTdaIiBzdHJva2U9IiMwMDAwMDAiIGZpbGw9Im5vbmUiIHN0cm9rZS1saW5lam9pbj0ibWl0ZXIiIHN0cm9rZS1taXRlcmxpbWl0PSIxMCIgc3Ryb2tlLWxpbmVjYXA9InJvdW5kIiBzdHJva2Utd2lkdGg9IjAiIHRyYW5zZm9ybT0ibWF0cml4KC4wNiwwLDAsLS4wNiwwLDg0MikiLz4mI3hhOzxwYXRoIGQ9Ik00MDIwIDExMTQ1VjExMDkwTDM4NTUgMTExMTdaIiB0cmFuc2Zvcm09Im1hdHJpeCguMDYsMCwwLC0uMDYsMCw4NDIpIi8+JiN4YTs8cGF0aCBkPSJNNDAyMCAxMTE0NVYxMTA5MEwzODU1IDExMTE3WiIgc3Ryb2tlPSIjMDAwMDAwIiBmaWxsPSJub25lIiBzdHJva2UtbGluZWpvaW49Im1pdGVyIiBzdHJva2UtbWl0ZXJsaW1pdD0iMTAiIHN0cm9rZS1saW5lY2FwPSJyb3VuZCIgc3Ryb2tlLXdpZHRoPSIwIiB0cmFuc2Zvcm09Im1hdHJpeCguMDYsMCwwLC0uMDYsMCw4NDIpIi8+JiN4YTs8dGV4dCBmb250LWZhbWlseT0iVmVyZGFuYSIgZm9udC1zaXplPSIyMjcuNDIzIiB0cmFuc2Zvcm09Im1hdHJpeCguMDYgMCAtMCAuMDYgMCA4NDIpIiB4bWw6c3BhY2U9InByZXNlcnZlIj48dHNwYW4geD0iMzUxNiAzNjYwLjY0MSAzNzQzLjQyMyIgeT0iLTExMTg3Ij42LjQ8L3RzcGFuPjwvdGV4dD4mI3hhOzxnPiYjeGE7PHBhdGggZD0iTTM0MjUgMTA0MzRIMzk4MiIgc3Ryb2tlPSIjMDAwMDAwIiBmaWxsPSJub25lIiBzdHJva2UtbGluZWpvaW49InJvdW5kIiBzdHJva2UtbGluZWNhcD0icm91bmQiIHN0cm9rZS13aWR0aD0iMTIiIHRyYW5zZm9ybT0ibWF0cml4KC4wNiwwLDAsLS4wNiwwLDg0MikiLz4mI3hhOzxwYXRoIGQ9Ik0zNzA0IDEwNzEzVjEwMTU1IiBzdHJva2U9IiMwMDAwMDAiIGZpbGw9Im5vbmUiIHN0cm9rZS1saW5lam9pbj0icm91bmQiIHN0cm9rZS1saW5lY2FwPSJyb3VuZCIgc3Ryb2tlLXdpZHRoPSIxMiIgdHJhbnNmb3JtPSJtYXRyaXgoLjA2LDAsMCwtLjA2LDAsODQyKSIvPiYjeGE7PHBhdGggZD0iTTMyMjQgMTAxNTVWMTA3MTMiIHN0cm9rZT0iIzAwMDAwMCIgZmlsbD0ibm9uZSIgc3Ryb2tlLWxpbmVqb2luPSJyb3VuZCIgc3Ryb2tlLWxpbmVjYXA9InJvdW5kIiBzdHJva2Utd2lkdGg9IjEyIiB0cmFuc2Zvcm09Im1hdHJpeCguMDYsMCwwLC0uMDYsMCw4NDIpIi8+JiN4YTs8cGF0aCBkPSJNMjk0NSAxMDQzNEgzNTAyIiBzdHJva2U9IiMwMDAwMDAiIGZpbGw9Im5vbmUiIHN0cm9rZS1saW5lam9pbj0icm91bmQiIHN0cm9rZS1saW5lY2FwPSJyb3VuZCIgc3Ryb2tlLXdpZHRoPSIxMiIgdHJhbnNmb3JtPSJtYXRyaXgoLjA2LDAsMCwtLjA2LDAsODQyKSIvPiYjeGE7PC9nPiYjeGE7PGc+JiN4YTs8cGF0aCBkPSJNMzcwNCAxMDUzM1YxMTY4NSIgc3Ryb2tlPSIjMDAwMDAwIiBmaWxsPSJub25lIiBzdHJva2UtbGluZWpvaW49InJvdW5kIiBzdHJva2UtbGluZWNhcD0icm91bmQiIHN0cm9rZS13aWR0aD0iMTIiIHRyYW5zZm9ybT0ibWF0cml4KC4wNiwwLDAsLS4wNiwwLDg0MikiLz4mI3hhOzxwYXRoIGQ9Ik0zMjI0IDEwNTMzVjExNjg1IiBzdHJva2U9IiMwMDAwMDAiIGZpbGw9Im5vbmUiIHN0cm9rZS1saW5lam9pbj0icm91bmQiIHN0cm9rZS1saW5lY2FwPSJyb3VuZCIgc3Ryb2tlLXdpZHRoPSIxMiIgdHJhbnNmb3JtPSJtYXRyaXgoLjA2LDAsMCwtLjA2LDAsODQyKSIvPiYjeGE7PHBhdGggZD0iTTM1MzggMTE1ODZIMzM4OSIgc3Ryb2tlPSIjMDAwMDAwIiBmaWxsPSJub25lIiBzdHJva2UtbGluZWpvaW49InJvdW5kIiBzdHJva2UtbGluZWNhcD0icm91bmQiIHN0cm9rZS13aWR0aD0iMTIiIHRyYW5zZm9ybT0ibWF0cml4KC4wNiwwLDAsLS4wNiwwLDg0MikiLz4mI3hhOzxwYXRoIGQ9Ik0zMjI0IDExNTg2SDIzMDgiIHN0cm9rZT0iIzAwMDAwMCIgZmlsbD0ibm9uZSIgc3Ryb2tlLWxpbmVqb2luPSJyb3VuZCIgc3Ryb2tlLWxpbmVjYXA9InJvdW5kIiBzdHJva2Utd2lkdGg9IjEyIiB0cmFuc2Zvcm09Im1hdHJpeCguMDYsMCwwLC0uMDYsMCw4NDIpIi8+JiN4YTs8cGF0aCBkPSJNMzUzOCAxMTYxM1YxMTU1OEwzNzA0IDExNTg2WiIgdHJhbnNmb3JtPSJtYXRyaXgoLjA2LDAsMCwtLjA2LDAsODQyKSIvPiYjeGE7PHBhdGggZD0iTTM1MzggMTE2MTNWMTE1NThMMzcwNCAxMTU4NloiIHN0cm9rZT0iIzAwMDAwMCIgZmlsbD0ibm9uZSIgc3Ryb2tlLWxpbmVqb2luPSJtaXRlciIgc3Ryb2tlLW1pdGVybGltaXQ9IjEwIiBzdHJva2UtbGluZWNhcD0icm91bmQiIHN0cm9rZS13aWR0aD0iMCIgdHJhbnNmb3JtPSJtYXRyaXgoLjA2LDAsMCwtLjA2LDAsODQyKSIvPiYjeGE7PHBhdGggZD0iTTMzODkgMTE2MTNWMTE1NThMMzIyNCAxMTU4NloiIHRyYW5zZm9ybT0ibWF0cml4KC4wNiwwLDAsLS4wNiwwLDg0MikiLz4mI3hhOzxwYXRoIGQ9Ik0zMzg5IDExNjEzVjExNTU4TDMyMjQgMTE1ODZaIiBzdHJva2U9IiMwMDAwMDAiIGZpbGw9Im5vbmUiIHN0cm9rZS1saW5lam9pbj0ibWl0ZXIiIHN0cm9rZS1taXRlcmxpbWl0PSIxMCIgc3Ryb2tlLWxpbmVjYXA9InJvdW5kIiBzdHJva2Utd2lkdGg9IjAiIHRyYW5zZm9ybT0ibWF0cml4KC4wNiwwLDAsLS4wNiwwLDg0MikiLz4mI3hhOzx0ZXh0IGZvbnQtZmFtaWx5PSJWZXJkYW5hIiBmb250LXNpemU9IjIyNy40MjMiIHRyYW5zZm9ybT0ibWF0cml4KC4wNiAwIC0wIC4wNiAwIDg0MikiIHhtbDpzcGFjZT0icHJlc2VydmUiPjx0c3BhbiB4PSIyMzQ0IDI0ODguNjQxIDI2MzMuMjgyMyAyNzE2LjA2NDMgMjg2MC43MDU0IiB5PSItMTE2NTUiPjEwLjE2PC90c3Bhbj48L3RleHQ+JiN4YTs8cGF0aCBkPSJNMzkxNiAxMDI4M0g0NzcyIiBzdHJva2U9IiMwMDAwMDAiIGZpbGw9Im5vbmUiIHN0cm9rZS1saW5lam9pbj0icm91bmQiIHN0cm9rZS1saW5lY2FwPSJyb3VuZCIgc3Ryb2tlLXdpZHRoPSIxMiIgdHJhbnNmb3JtPSJtYXRyaXgoLjA2LDAsMCwtLjA2LDAsODQyKSIvPiYjeGE7PHBhdGggZD0iTTQzMDkgMTAwNzVINDc3MiIgc3Ryb2tlPSIjMDAwMDAwIiBmaWxsPSJub25lIiBzdHJva2UtbGluZWpvaW49InJvdW5kIiBzdHJva2UtbGluZWNhcD0icm91bmQiIHN0cm9rZS13aWR0aD0iMTIiIHRyYW5zZm9ybT0ibWF0cml4KC4wNiwwLDAsLS4wNiwwLDg0MikiLz4mI3hhOzxwYXRoIGQ9Ik00NjczIDEwNDQ4VjEwNjEzIiBzdHJva2U9IiMwMDAwMDAiIGZpbGw9Im5vbmUiIHN0cm9rZS1saW5lam9pbj0icm91bmQiIHN0cm9rZS1saW5lY2FwPSJyb3VuZCIgc3Ryb2tlLXdpZHRoPSIxMiIgdHJhbnNmb3JtPSJtYXRyaXgoLjA2LDAsMCwtLjA2LDAsODQyKSIvPiYjeGE7PHBhdGggZD0iTTQ2NzMgOTkxMFY5NzQ0IiBzdHJva2U9IiMwMDAwMDAiIGZpbGw9Im5vbmUiIHN0cm9rZS1saW5lam9pbj0icm91bmQiIHN0cm9rZS1saW5lY2FwPSJyb3VuZCIgc3Ryb2tlLXdpZHRoPSIxMiIgdHJhbnNmb3JtPSJtYXRyaXgoLjA2LDAsMCwtLjA2LDAsODQyKSIvPiYjeGE7PHBhdGggZD0iTTQ2NzMgMTAyODNWMTAwNzUiIHN0cm9rZT0iIzAwMDAwMCIgZmlsbD0ibm9uZSIgc3Ryb2tlLWxpbmVqb2luPSJyb3VuZCIgc3Ryb2tlLWxpbmVjYXA9InJvdW5kIiBzdHJva2Utd2lkdGg9IjEyIiB0cmFuc2Zvcm09Im1hdHJpeCguMDYsMCwwLC0uMDYsMCw4NDIpIi8+JiN4YTs8cGF0aCBkPSJNNDY0NiAxMDQ0OEg0NzAxTDQ2NzMgMTAyODNaIiB0cmFuc2Zvcm09Im1hdHJpeCguMDYsMCwwLC0uMDYsMCw4NDIpIi8+JiN4YTs8cGF0aCBkPSJNNDY0NiAxMDQ0OEg0NzAxTDQ2NzMgMTAyODNaIiBzdHJva2U9IiMwMDAwMDAiIGZpbGw9Im5vbmUiIHN0cm9rZS1saW5lam9pbj0ibWl0ZXIiIHN0cm9rZS1taXRlcmxpbWl0PSIxMCIgc3Ryb2tlLWxpbmVjYXA9InJvdW5kIiBzdHJva2Utd2lkdGg9IjAiIHRyYW5zZm9ybT0ibWF0cml4KC4wNiwwLDAsLS4wNiwwLDg0MikiLz4mI3hhOzxwYXRoIGQ9Ik00NjQ2IDk5MTBINDcwMUw0NjczIDEwMDc1WiIgdHJhbnNmb3JtPSJtYXRyaXgoLjA2LDAsMCwtLjA2LDAsODQyKSIvPiYjeGE7PHBhdGggZD0iTTQ2NDYgOTkxMEg0NzAxTDQ2NzMgMTAwNzVaIiBzdHJva2U9IiMwMDAwMDAiIGZpbGw9Im5vbmUiIHN0cm9rZS1saW5lam9pbj0ibWl0ZXIiIHN0cm9rZS1taXRlcmxpbWl0PSIxMCIgc3Ryb2tlLWxpbmVjYXA9InJvdW5kIiBzdHJva2Utd2lkdGg9IjAiIHRyYW5zZm9ybT0ibWF0cml4KC4wNiwwLDAsLS4wNiwwLDg0MikiLz4mI3hhOzx0ZXh0IGZvbnQtZmFtaWx5PSJWZXJkYW5hIiBmb250LXNpemU9IjIyNy40MjMiIHRyYW5zZm9ybT0ibWF0cml4KDAgLS4wNiAuMDYgMCAwIDg0MikiIHhtbDpzcGFjZT0icHJlc2VydmUiPjx0c3BhbiB4PSI5OTk0IDEwMTM4LjY0MSAxMDIyMS40MjMiIHk9IjQ2MDciPjQuNDwvdHNwYW4+PC90ZXh0PiYjeGE7PHBhdGggZD0iTTE4MTAgMTA2NDdWMTEyMjIiIHN0cm9rZT0iIzAwMDAwMCIgZmlsbD0ibm9uZSIgc3Ryb2tlLWxpbmVqb2luPSJyb3VuZCIgc3Ryb2tlLWxpbmVjYXA9InJvdW5kIiBzdHJva2Utd2lkdGg9IjEyIiB0cmFuc2Zvcm09Im1hdHJpeCguMDYsMCwwLC0uMDYsMCw4NDIpIi8+JiN4YTs8cGF0aCBkPSJNMjQxNSAxMDY0N1YxMTIyMiIgc3Ryb2tlPSIjMDAwMDAwIiBmaWxsPSJub25lIiBzdHJva2UtbGluZWpvaW49InJvdW5kIiBzdHJva2UtbGluZWNhcD0icm91bmQiIHN0cm9rZS13aWR0aD0iMTIiIHRyYW5zZm9ybT0ibWF0cml4KC4wNiwwLDAsLS4wNiwwLDg0MikiLz4mI3hhOzxwYXRoIGQ9Ik0xOTc2IDExMTIzSDIyNTAiIHN0cm9rZT0iIzAwMDAwMCIgZmlsbD0ibm9uZSIgc3Ryb2tlLWxpbmVqb2luPSJyb3VuZCIgc3Ryb2tlLWxpbmVjYXA9InJvdW5kIiBzdHJva2Utd2lkdGg9IjEyIiB0cmFuc2Zvcm09Im1hdHJpeCguMDYsMCwwLC0uMDYsMCw4NDIpIi8+JiN4YTs8cGF0aCBkPSJNMTk3NiAxMTE1MFYxMTA5NUwxODEwIDExMTIzWiIgdHJhbnNmb3JtPSJtYXRyaXgoLjA2LDAsMCwtLjA2LDAsODQyKSIvPiYjeGE7PHBhdGggZD0iTTE5NzYgMTExNTBWMTEwOTVMMTgxMCAxMTEyM1oiIHN0cm9rZT0iIzAwMDAwMCIgZmlsbD0ibm9uZSIgc3Ryb2tlLWxpbmVqb2luPSJtaXRlciIgc3Ryb2tlLW1pdGVybGltaXQ9IjEwIiBzdHJva2UtbGluZWNhcD0icm91bmQiIHN0cm9rZS13aWR0aD0iMCIgdHJhbnNmb3JtPSJtYXRyaXgoLjA2LDAsMCwtLjA2LDAsODQyKSIvPiYjeGE7PHBhdGggZD0iTTIyNTAgMTExNTBWMTEwOTVMMjQxNSAxMTEyM1oiIHRyYW5zZm9ybT0ibWF0cml4KC4wNiwwLDAsLS4wNiwwLDg0MikiLz4mI3hhOzxwYXRoIGQ9Ik0yMjUwIDExMTUwVjExMDk1TDI0MTUgMTExMjNaIiBzdHJva2U9IiMwMDAwMDAiIGZpbGw9Im5vbmUiIHN0cm9rZS1saW5lam9pbj0ibWl0ZXIiIHN0cm9rZS1taXRlcmxpbWl0PSIxMCIgc3Ryb2tlLWxpbmVjYXA9InJvdW5kIiBzdHJva2Utd2lkdGg9IjAiIHRyYW5zZm9ybT0ibWF0cml4KC4wNiwwLDAsLS4wNiwwLDg0MikiLz4mI3hhOzx0ZXh0IGZvbnQtZmFtaWx5PSJWZXJkYW5hIiBmb250LXNpemU9IjIyNy40MjMiIHRyYW5zZm9ybT0ibWF0cml4KC4wNiAwIC0wIC4wNiAwIDg0MikiIHhtbDpzcGFjZT0icHJlc2VydmUiPjx0c3BhbiB4PSIxODQ2IDE5OTAuNjQxIDIxMzUuMjgyIDIyMTguMDY0IiB5PSItMTExOTIiPjEyLjg8L3RzcGFuPjwvdGV4dD4mI3hhOzxwYXRoIGQ9Ik0xODEwIDEwMjIxVjk5MjciIHN0cm9rZT0iIzAwMDAwMCIgZmlsbD0ibm9uZSIgc3Ryb2tlLWxpbmVqb2luPSJyb3VuZCIgc3Ryb2tlLWxpbmVjYXA9InJvdW5kIiBzdHJva2Utd2lkdGg9IjEyIiB0cmFuc2Zvcm09Im1hdHJpeCguMDYsMCwwLC0uMDYsMCw4NDIpIi8+JiN4YTs8cGF0aCBkPSJNMTcwNiAxMDAyM1Y5OTI3IiBzdHJva2U9IiMwMDAwMDAiIGZpbGw9Im5vbmUiIHN0cm9rZS1saW5lam9pbj0icm91bmQiIHN0cm9rZS1saW5lY2FwPSJyb3VuZCIgc3Ryb2tlLXdpZHRoPSIxMiIgdHJhbnNmb3JtPSJtYXRyaXgoLjA2LDAsMCwtLjA2LDAsODQyKSIvPiYjeGE7PHBhdGggZD0iTTE1NDEgMTAwMjZIMTM3NiIgc3Ryb2tlPSIjMDAwMDAwIiBmaWxsPSJub25lIiBzdHJva2UtbGluZWpvaW49InJvdW5kIiBzdHJva2UtbGluZWNhcD0icm91bmQiIHN0cm9rZS13aWR0aD0iMTIiIHRyYW5zZm9ybT0ibWF0cml4KC4wNiwwLDAsLS4wNiwwLDg0MikiLz4mI3hhOzxwYXRoIGQ9Ik0xOTc2IDEwMDI2SDI2NzIiIHN0cm9rZT0iIzAwMDAwMCIgZmlsbD0ibm9uZSIgc3Ryb2tlLWxpbmVqb2luPSJyb3VuZCIgc3Ryb2tlLWxpbmVjYXA9InJvdW5kIiBzdHJva2Utd2lkdGg9IjEyIiB0cmFuc2Zvcm09Im1hdHJpeCguMDYsMCwwLC0uMDYsMCw4NDIpIi8+JiN4YTs8cGF0aCBkPSJNMTcwNiAxMDAyNkgxODEwIiBzdHJva2U9IiMwMDAwMDAiIGZpbGw9Im5vbmUiIHN0cm9rZS1saW5lam9pbj0icm91bmQiIHN0cm9rZS1saW5lY2FwPSJyb3VuZCIgc3Ryb2tlLXdpZHRoPSIxMiIgdHJhbnNmb3JtPSJtYXRyaXgoLjA2LDAsMCwtLjA2LDAsODQyKSIvPiYjeGE7PHBhdGggZD0iTTE1NDEgMTAwNTRWOTk5OUwxNzA2IDEwMDI2WiIgdHJhbnNmb3JtPSJtYXRyaXgoLjA2LDAsMCwtLjA2LDAsODQyKSIvPiYjeGE7PHBhdGggZD0iTTE1NDEgMTAwNTRWOTk5OUwxNzA2IDEwMDI2WiIgc3Ryb2tlPSIjMDAwMDAwIiBmaWxsPSJub25lIiBzdHJva2UtbGluZWpvaW49Im1pdGVyIiBzdHJva2UtbWl0ZXJsaW1pdD0iMTAiIHN0cm9rZS1saW5lY2FwPSJyb3VuZCIgc3Ryb2tlLXdpZHRoPSIwIiB0cmFuc2Zvcm09Im1hdHJpeCguMDYsMCwwLC0uMDYsMCw4NDIpIi8+JiN4YTs8cGF0aCBkPSJNMTk3NiAxMDA1NFY5OTk5TDE4MTAgMTAwMjZaIiB0cmFuc2Zvcm09Im1hdHJpeCguMDYsMCwwLC0uMDYsMCw4NDIpIi8+JiN4YTs8cGF0aCBkPSJNMTk3NiAxMDA1NFY5OTk5TDE4MTAgMTAwMjZaIiBzdHJva2U9IiMwMDAwMDAiIGZpbGw9Im5vbmUiIHN0cm9rZS1saW5lam9pbj0ibWl0ZXIiIHN0cm9rZS1taXRlcmxpbWl0PSIxMCIgc3Ryb2tlLWxpbmVjYXA9InJvdW5kIiBzdHJva2Utd2lkdGg9IjAiIHRyYW5zZm9ybT0ibWF0cml4KC4wNiwwLDAsLS4wNiwwLDg0MikiLz4mI3hhOzx0ZXh0IGZvbnQtZmFtaWx5PSJWZXJkYW5hIiBmb250LXNpemU9IjIyNy40MjMiIHRyYW5zZm9ybT0ibWF0cml4KC4wNiAwIC0wIC4wNiAwIDg0MikiIHhtbDpzcGFjZT0icHJlc2VydmUiPjx0c3BhbiB4PSIyMjQ5IDIzOTMuNjQxIDI0NzYuNDIzIiB5PSItMTAwOTIiPjIuMjwvdHNwYW4+PC90ZXh0PiYjeGE7PHBhdGggZD0iTTQzNTcgMTE0MzVINDc2OCIgc3Ryb2tlPSIjMDAwMDAwIiBmaWxsPSJub25lIiBzdHJva2UtbGluZWpvaW49InJvdW5kIiBzdHJva2UtbGluZWNhcD0icm91bmQiIHN0cm9rZS13aWR0aD0iMTIiIHRyYW5zZm9ybT0ibWF0cml4KC4wNiwwLDAsLS4wNiwwLDg0MikiLz4mI3hhOzxwYXRoIGQ9Ik00MzA5IDEyMDAySDQ3NjgiIHN0cm9rZT0iIzAwMDAwMCIgZmlsbD0ibm9uZSIgc3Ryb2tlLWxpbmVqb2luPSJyb3VuZCIgc3Ryb2tlLWxpbmVjYXA9InJvdW5kIiBzdHJva2Utd2lkdGg9IjEyIiB0cmFuc2Zvcm09Im1hdHJpeCguMDYsMCwwLC0uMDYsMCw4NDIpIi8+JiN4YTs8cGF0aCBkPSJNNDY2OCAxMTYwMVYxMTgzNyIgc3Ryb2tlPSIjMDAwMDAwIiBmaWxsPSJub25lIiBzdHJva2UtbGluZWpvaW49InJvdW5kIiBzdHJva2UtbGluZWNhcD0icm91bmQiIHN0cm9rZS13aWR0aD0iMTIiIHRyYW5zZm9ybT0ibWF0cml4KC4wNiwwLDAsLS4wNiwwLDg0MikiLz4mI3hhOzxwYXRoIGQ9Ik00NjQxIDExNjAxSDQ2OTZMNDY2OCAxMTQzNVoiIHRyYW5zZm9ybT0ibWF0cml4KC4wNiwwLDAsLS4wNiwwLDg0MikiLz4mI3hhOzxwYXRoIGQ9Ik00NjQxIDExNjAxSDQ2OTZMNDY2OCAxMTQzNVoiIHN0cm9rZT0iIzAwMDAwMCIgZmlsbD0ibm9uZSIgc3Ryb2tlLWxpbmVqb2luPSJtaXRlciIgc3Ryb2tlLW1pdGVybGltaXQ9IjEwIiBzdHJva2UtbGluZWNhcD0icm91bmQiIHN0cm9rZS13aWR0aD0iMCIgdHJhbnNmb3JtPSJtYXRyaXgoLjA2LDAsMCwtLjA2LDAsODQyKSIvPiYjeGE7PHBhdGggZD0iTTQ2NDEgMTE4MzdINDY5Nkw0NjY4IDEyMDAyWiIgdHJhbnNmb3JtPSJtYXRyaXgoLjA2LDAsMCwtLjA2LDAsODQyKSIvPiYjeGE7PHBhdGggZD0iTTQ2NDEgMTE4MzdINDY5Nkw0NjY4IDEyMDAyWiIgc3Ryb2tlPSIjMDAwMDAwIiBmaWxsPSJub25lIiBzdHJva2UtbGluZWpvaW49Im1pdGVyIiBzdHJva2UtbWl0ZXJsaW1pdD0iMTAiIHN0cm9rZS1saW5lY2FwPSJyb3VuZCIgc3Ryb2tlLXdpZHRoPSIwIiB0cmFuc2Zvcm09Im1hdHJpeCguMDYsMCwwLC0uMDYsMCw4NDIpIi8+JiN4YTs8dGV4dCBmb250LWZhbWlseT0iVmVyZGFuYSIgZm9udC1zaXplPSIyMjcuNDIzIiB0cmFuc2Zvcm09Im1hdHJpeCgwIC0uMDYgLjA2IDAgMCA4NDIpIiB4bWw6c3BhY2U9InByZXNlcnZlIj48dHNwYW4geD0iMTE1NjYgMTE3MTAuNjQxIiB5PSI0NjAyIj4xMjwvdHNwYW4+PC90ZXh0PiYjeGE7PHBhdGggZD0iTTE1MTMgODM2NEgxMjAxIiBzdHJva2U9IiMwMDAwMDAiIGZpbGw9Im5vbmUiIHN0cm9rZS1saW5lam9pbj0icm91bmQiIHN0cm9rZS1saW5lY2FwPSJyb3VuZCIgc3Ryb2tlLXdpZHRoPSIxMiIgdHJhbnNmb3JtPSJtYXRyaXgoLjA2LDAsMCwtLjA2LDAsODQyKSIvPiYjeGE7PHBhdGggZD0iTTE1NTAgNzU2MUgxMjAxIiBzdHJva2U9IiMwMDAwMDAiIGZpbGw9Im5vbmUiIHN0cm9rZS1saW5lam9pbj0icm91bmQiIHN0cm9rZS1saW5lY2FwPSJyb3VuZCIgc3Ryb2tlLXdpZHRoPSIxMiIgdHJhbnNmb3JtPSJtYXRyaXgoLjA2LDAsMCwtLjA2LDAsODQyKSIvPiYjeGE7PHBhdGggZD0iTTEzMDAgODE5OFY3NzI2IiBzdHJva2U9IiMwMDAwMDAiIGZpbGw9Im5vbmUiIHN0cm9rZS1saW5lam9pbj0icm91bmQiIHN0cm9rZS1saW5lY2FwPSJyb3VuZCIgc3Ryb2tlLXdpZHRoPSIxMiIgdHJhbnNmb3JtPSJtYXRyaXgoLjA2LDAsMCwtLjA2LDAsODQyKSIvPiYjeGE7PHBhdGggZD0iTTEyNzMgODE5OEgxMzI4TDEzMDAgODM2NFoiIHRyYW5zZm9ybT0ibWF0cml4KC4wNiwwLDAsLS4wNiwwLDg0MikiLz4mI3hhOzxwYXRoIGQ9Ik0xMjczIDgxOThIMTMyOEwxMzAwIDgzNjRaIiBzdHJva2U9IiMwMDAwMDAiIGZpbGw9Im5vbmUiIHN0cm9rZS1saW5lam9pbj0ibWl0ZXIiIHN0cm9rZS1taXRlcmxpbWl0PSIxMCIgc3Ryb2tlLWxpbmVjYXA9InJvdW5kIiBzdHJva2Utd2lkdGg9IjAiIHRyYW5zZm9ybT0ibWF0cml4KC4wNiwwLDAsLS4wNiwwLDg0MikiLz4mI3hhOzxwYXRoIGQ9Ik0xMjczIDc3MjZIMTMyOEwxMzAwIDc1NjFaIiB0cmFuc2Zvcm09Im1hdHJpeCguMDYsMCwwLC0uMDYsMCw4NDIpIi8+JiN4YTs8cGF0aCBkPSJNMTI3MyA3NzI2SDEzMjhMMTMwMCA3NTYxWiIgc3Ryb2tlPSIjMDAwMDAwIiBmaWxsPSJub25lIiBzdHJva2UtbGluZWpvaW49Im1pdGVyIiBzdHJva2UtbWl0ZXJsaW1pdD0iMTAiIHN0cm9rZS1saW5lY2FwPSJyb3VuZCIgc3Ryb2tlLXdpZHRoPSIwIiB0cmFuc2Zvcm09Im1hdHJpeCguMDYsMCwwLC0uMDYsMCw4NDIpIi8+JiN4YTs8dGV4dCBmb250LWZhbWlseT0iVmVyZGFuYSIgZm9udC1zaXplPSIyMjcuNDIzIiB0cmFuc2Zvcm09Im1hdHJpeCgwIC0uMDYgLjA2IDAgMCA4NDIpIiB4bWw6c3BhY2U9InByZXNlcnZlIj48dHNwYW4geD0iNzgxOCA3OTYyLjY0MSIgeT0iMTIzNCI+MTc8L3RzcGFuPjwvdGV4dD4mI3hhOzxwYXRoIGQ9Ik0xODA2IDc3MTJIMjE1NCIgc3Ryb2tlPSIjMDAwMDAwIiBmaWxsPSJub25lIiBzdHJva2UtbGluZWpvaW49InJvdW5kIiBzdHJva2UtbGluZWNhcD0icm91bmQiIHN0cm9rZS13aWR0aD0iMTIiIHRyYW5zZm9ybT0ibWF0cml4KC4wNiwwLDAsLS4wNiwwLDg0MikiLz4mI3hhOzxwYXRoIGQ9Ik0xODA2IDgzNjRIMjE1NCIgc3Ryb2tlPSIjMDAwMDAwIiBmaWxsPSJub25lIiBzdHJva2UtbGluZWpvaW49InJvdW5kIiBzdHJva2UtbGluZWNhcD0icm91bmQiIHN0cm9rZS13aWR0aD0iMTIiIHRyYW5zZm9ybT0ibWF0cml4KC4wNiwwLDAsLS4wNiwwLDg0MikiLz4mI3hhOzxwYXRoIGQ9Ik0yMDU1IDc4NzdWODE5OCIgc3Ryb2tlPSIjMDAwMDAwIiBmaWxsPSJub25lIiBzdHJva2UtbGluZWpvaW49InJvdW5kIiBzdHJva2UtbGluZWNhcD0icm91bmQiIHN0cm9rZS13aWR0aD0iMTIiIHRyYW5zZm9ybT0ibWF0cml4KC4wNiwwLDAsLS4wNiwwLDg0MikiLz4mI3hhOzxwYXRoIGQ9Ik0yMDI3IDc4NzdIMjA4MkwyMDU1IDc3MTJaIiB0cmFuc2Zvcm09Im1hdHJpeCguMDYsMCwwLC0uMDYsMCw4NDIpIi8+JiN4YTs8cGF0aCBkPSJNMjAyNyA3ODc3SDIwODJMMjA1NSA3NzEyWiIgc3Ryb2tlPSIjMDAwMDAwIiBmaWxsPSJub25lIiBzdHJva2UtbGluZWpvaW49Im1pdGVyIiBzdHJva2UtbWl0ZXJsaW1pdD0iMTAiIHN0cm9rZS1saW5lY2FwPSJyb3VuZCIgc3Ryb2tlLXdpZHRoPSIwIiB0cmFuc2Zvcm09Im1hdHJpeCguMDYsMCwwLC0uMDYsMCw4NDIpIi8+JiN4YTs8cGF0aCBkPSJNMjAyNyA4MTk4SDIwODJMMjA1NSA4MzY0WiIgdHJhbnNmb3JtPSJtYXRyaXgoLjA2LDAsMCwtLjA2LDAsODQyKSIvPiYjeGE7PHBhdGggZD0iTTIwMjcgODE5OEgyMDgyTDIwNTUgODM2NFoiIHN0cm9rZT0iIzAwMDAwMCIgZmlsbD0ibm9uZSIgc3Ryb2tlLWxpbmVqb2luPSJtaXRlciIgc3Ryb2tlLW1pdGVybGltaXQ9IjEwIiBzdHJva2UtbGluZWNhcD0icm91bmQiIHN0cm9rZS13aWR0aD0iMCIgdHJhbnNmb3JtPSJtYXRyaXgoLjA2LDAsMCwtLjA2LDAsODQyKSIvPiYjeGE7PHRleHQgZm9udC1mYW1pbHk9IlZlcmRhbmEiIGZvbnQtc2l6ZT0iMjI3LjQyMyIgdHJhbnNmb3JtPSJtYXRyaXgoMCAtLjA2IC4wNiAwIDAgODQyKSIgeG1sOnNwYWNlPSJwcmVzZXJ2ZSI+PHRzcGFuIHg9Ijc3NzEgNzkxNS42NDEgODA2MC4yODIgODE0My4wNjQ2IiB5PSIxOTg1Ij4xMy44PC90c3Bhbj48L3RleHQ+JiN4YTs8cGF0aCBkPSJNNDg0MiAxMjU4MiA0NDQyIDEyMTg1IiBzdHJva2U9IiMwMDAwMDAiIGZpbGw9Im5vbmUiIHN0cm9rZS1saW5lam9pbj0icm91bmQiIHN0cm9rZS1saW5lY2FwPSJyb3VuZCIgc3Ryb2tlLXdpZHRoPSIxMiIgdHJhbnNmb3JtPSJtYXRyaXgoLjA2LDAsMCwtLjA2LDAsODQyKSIvPiYjeGE7PHRleHQgZm9udC1mYW1pbHk9IlZlcmRhbmEiIGZvbnQtc2l6ZT0iMjI3LjQyMzA0IiB0cmFuc2Zvcm09Im1hdHJpeCguMDQyNTIzNzk1IC0uMDQyMzI4Nzk1IC4wNDIzMjg3OTUgLjA0MjUyMzc5NSAwIDg0MikiIHhtbDpzcGFjZT0icHJlc2VydmUiPjx0c3BhbiB4PSIxMTk1NC4zMTEiIHk9Ii01NTY4LjM3NTciPlI8L3RzcGFuPjx0c3BhbiB4PSIxMjExMi4zNjkiIHk9Ii01NTY4LjM3NiI+MjwvdHNwYW4+PC90ZXh0PiYjeGE7PHBhdGggZD0iTTQyNTcgMTIwMDIgNDMyNCAxMjA2OSIgc3Ryb2tlPSIjMDAwMDAwIiBmaWxsPSJub25lIiBzdHJva2UtbGluZWpvaW49InJvdW5kIiBzdHJva2UtbGluZWNhcD0icm91bmQiIHN0cm9rZS13aWR0aD0iMTIiIHRyYW5zZm9ybT0ibWF0cml4KC4wNiwwLDAsLS4wNiwwLDg0MikiLz4mI3hhOzxwYXRoIGQ9Ik00NDIyIDEyMjA1IDQ0NjEgMTIxNjYgNDMyNCAxMjA2OVoiIHRyYW5zZm9ybT0ibWF0cml4KC4wNiwwLDAsLS4wNiwwLDg0MikiLz4mI3hhOzxwYXRoIGQ9Ik00NDIyIDEyMjA1IDQ0NjEgMTIxNjYgNDMyNCAxMjA2OVoiIHN0cm9rZT0iIzAwMDAwMCIgZmlsbD0ibm9uZSIgc3Ryb2tlLWxpbmVqb2luPSJtaXRlciIgc3Ryb2tlLW1pdGVybGltaXQ9IjEwIiBzdHJva2UtbGluZWNhcD0icm91bmQiIHN0cm9rZS13aWR0aD0iMCIgdHJhbnNmb3JtPSJtYXRyaXgoLjA2LDAsMCwtLjA2LDAsODQyKSIvPiYjeGE7PHBhdGggZD0iTTI0MjYgMTE5NTQgMTg3MiAxMTk1NSIgc3Ryb2tlPSIjMDAwMDAwIiBmaWxsPSJub25lIiBzdHJva2UtbGluZWpvaW49InJvdW5kIiBzdHJva2UtbGluZWNhcD0icm91bmQiIHN0cm9rZS13aWR0aD0iMTIiIHRyYW5zZm9ybT0ibWF0cml4KC4wNiwwLDAsLS4wNiwwLDg0MikiLz4mI3hhOzx0ZXh0IGZvbnQtZmFtaWx5PSJWZXJkYW5hIiBmb250LXNpemU9IjIyNy40MjMiIHRyYW5zZm9ybT0ibWF0cml4KC4wNiAwIC0wIC4wNiAwIDg0MikiIHhtbDpzcGFjZT0icHJlc2VydmUiPjx0c3BhbiB4PSIyMDgxIDIyMzkuMDU5IiB5PSItMTIwMjEiPlIxPC90c3Bhbj48L3RleHQ+JiN4YTs8cGF0aCBkPSJNMTg3MiAxMTk4M1YxMTkyN0wxNzA2IDExOTU1WiIgdHJhbnNmb3JtPSJtYXRyaXgoLjA2LDAsMCwtLjA2LDAsODQyKSIvPiYjeGE7PHBhdGggZD0iTTE4NzIgMTE5ODNWMTE5MjdMMTcwNiAxMTk1NVoiIHN0cm9rZT0iIzAwMDAwMCIgZmlsbD0ibm9uZSIgc3Ryb2tlLWxpbmVqb2luPSJtaXRlciIgc3Ryb2tlLW1pdGVybGltaXQ9IjEwIiBzdHJva2UtbGluZWNhcD0icm91bmQiIHN0cm9rZS13aWR0aD0iMCIgdHJhbnNmb3JtPSJtYXRyaXgoLjA2LDAsMCwtLjA2LDAsODQyKSIvPiYjeGE7PHBhdGggZD0iTTg2OTggMTI1ODggNzg3OSAxMTk1MSIgc3Ryb2tlPSIjMDAwMDAwIiBmaWxsPSJub25lIiBzdHJva2UtbGluZWpvaW49InJvdW5kIiBzdHJva2UtbGluZWNhcD0icm91bmQiIHN0cm9rZS13aWR0aD0iMTIiIHRyYW5zZm9ybT0ibWF0cml4KC4wNiwwLDAsLS4wNiwwLDg0MikiLz4mI3hhOzx0ZXh0IGZvbnQtZmFtaWx5PSJWZXJkYW5hIiBmb250LXNpemU9IjIyNy40MjMxMyIgdHJhbnNmb3JtPSJtYXRyaXgoLjA0NzM2ODE3OCAtLjAzNjgyNzM3OSAuMDM2ODI3Mzc5IC4wNDczNjgxNzggMCA4NDIpIiB4bWw6c3BhY2U9InByZXNlcnZlIj48dHNwYW4geD0iMTQwMTMuNzA1IiB5PSItNDY2OC4zNjUiPlI8L3RzcGFuPjx0c3BhbiB4PSIxNDE3MS43NjUiIHk9Ii00NjY4LjM2NDUiPjM8L3RzcGFuPjx0c3BhbiB4PSIxNDMxNi40MDYgMTQzOTkuMTg3OSIgeT0iLTQ2NjguMzY0OSI+LjM8L3RzcGFuPjwvdGV4dD4mI3hhOzxwYXRoIGQ9Ik03NjI1IDExNzUzIDc3NDggMTE4NDkiIHN0cm9rZT0iIzAwMDAwMCIgZmlsbD0ibm9uZSIgc3Ryb2tlLWxpbmVqb2luPSJyb3VuZCIgc3Ryb2tlLWxpbmVjYXA9InJvdW5kIiBzdHJva2Utd2lkdGg9IjEyIiB0cmFuc2Zvcm09Im1hdHJpeCguMDYsMCwwLC0uMDYsMCw4NDIpIi8+JiN4YTs8cGF0aCBkPSJNNzg2MiAxMTk3MiA3ODk1IDExOTI5IDc3NDggMTE4NDlaIiB0cmFuc2Zvcm09Im1hdHJpeCguMDYsMCwwLC0uMDYsMCw4NDIpIi8+JiN4YTs8cGF0aCBkPSJNNzg2MiAxMTk3MiA3ODk1IDExOTI5IDc3NDggMTE4NDlaIiBzdHJva2U9IiMwMDAwMDAiIGZpbGw9Im5vbmUiIHN0cm9rZS1saW5lam9pbj0ibWl0ZXIiIHN0cm9rZS1taXRlcmxpbWl0PSIxMCIgc3Ryb2tlLWxpbmVjYXA9InJvdW5kIiBzdHJva2Utd2lkdGg9IjAiIHRyYW5zZm9ybT0ibWF0cml4KC4wNiwwLDAsLS4wNiwwLDg0MikiLz4mI3hhOzwvZz4mI3hhOzxnPiYjeGE7PHBhdGggZD0iTTYxNDMgMTE3NTNINjIyNyIgc3Ryb2tlPSIjMDAwMDAwIiBmaWxsPSJub25lIiBzdHJva2UtbGluZWpvaW49InJvdW5kIiBzdHJva2UtbGluZWNhcD0icm91bmQiIHN0cm9rZS13aWR0aD0iMTIiIHRyYW5zZm9ybT0ibWF0cml4KC4wNiwwLDAsLS4wNiwwLDg0MikiLz4mI3hhOzxwYXRoIGQ9Ik02MTg1IDExNzExVjExNzk2IiBzdHJva2U9IiMwMDAwMDAiIGZpbGw9Im5vbmUiIHN0cm9rZS1saW5lam9pbj0icm91bmQiIHN0cm9rZS1saW5lY2FwPSJyb3VuZCIgc3Ryb2tlLXdpZHRoPSIxMiIgdHJhbnNmb3JtPSJtYXRyaXgoLjA2LDAsMCwtLjA2LDAsODQyKSIvPiYjeGE7PHBhdGggZD0iTTU4NjQgMTE3NTNINjA1OCIgc3Ryb2tlPSIjMDAwMDAwIiBmaWxsPSJub25lIiBzdHJva2UtbGluZWpvaW49InJvdW5kIiBzdHJva2UtbGluZWNhcD0icm91bmQiIHN0cm9rZS13aWR0aD0iMTIiIHRyYW5zZm9ybT0ibWF0cml4KC4wNiwwLDAsLS4wNiwwLDg0MikiLz4mI3hhOzxwYXRoIGQ9Ik02MzEyIDExNzUzSDY1MDYiIHN0cm9rZT0iIzAwMDAwMCIgZmlsbD0ibm9uZSIgc3Ryb2tlLWxpbmVqb2luPSJyb3VuZCIgc3Ryb2tlLWxpbmVjYXA9InJvdW5kIiBzdHJva2Utd2lkdGg9IjEyIiB0cmFuc2Zvcm09Im1hdHJpeCguMDYsMCwwLC0uMDYsMCw4NDIpIi8+JiN4YTs8cGF0aCBkPSJNNjE4NSAxMTQzMlYxMTYyNyIgc3Ryb2tlPSIjMDAwMDAwIiBmaWxsPSJub25lIiBzdHJva2UtbGluZWpvaW49InJvdW5kIiBzdHJva2UtbGluZWNhcD0icm91bmQiIHN0cm9rZS13aWR0aD0iMTIiIHRyYW5zZm9ybT0ibWF0cml4KC4wNiwwLDAsLS4wNiwwLDg0MikiLz4mI3hhOzxwYXRoIGQ9Ik02MTg1IDExODgwVjEyMDc1IiBzdHJva2U9IiMwMDAwMDAiIGZpbGw9Im5vbmUiIHN0cm9rZS1saW5lam9pbj0icm91bmQiIHN0cm9rZS1saW5lY2FwPSJyb3VuZCIgc3Ryb2tlLXdpZHRoPSIxMiIgdHJhbnNmb3JtPSJtYXRyaXgoLjA2LDAsMCwtLjA2LDAsODQyKSIvPiYjeGE7PHBhdGggZD0iTTY2MjMgMTE3NTNINjcwNyIgc3Ryb2tlPSIjMDAwMDAwIiBmaWxsPSJub25lIiBzdHJva2UtbGluZWpvaW49InJvdW5kIiBzdHJva2UtbGluZWNhcD0icm91bmQiIHN0cm9rZS13aWR0aD0iMTIiIHRyYW5zZm9ybT0ibWF0cml4KC4wNiwwLDAsLS4wNiwwLDg0MikiLz4mI3hhOzxwYXRoIGQ9Ik02NjY1IDExNzExVjExNzk2IiBzdHJva2U9IiMwMDAwMDAiIGZpbGw9Im5vbmUiIHN0cm9rZS1saW5lam9pbj0icm91bmQiIHN0cm9rZS1saW5lY2FwPSJyb3VuZCIgc3Ryb2tlLXdpZHRoPSIxMiIgdHJhbnNmb3JtPSJtYXRyaXgoLjA2LDAsMCwtLjA2LDAsODQyKSIvPiYjeGE7PHBhdGggZD0iTTYzNDQgMTE3NTNINjUzOCIgc3Ryb2tlPSIjMDAwMDAwIiBmaWxsPSJub25lIiBzdHJva2UtbGluZWpvaW49InJvdW5kIiBzdHJva2UtbGluZWNhcD0icm91bmQiIHN0cm9rZS13aWR0aD0iMTIiIHRyYW5zZm9ybT0ibWF0cml4KC4wNiwwLDAsLS4wNiwwLDg0MikiLz4mI3hhOzxwYXRoIGQ9Ik02NzkyIDExNzUzSDY5ODYiIHN0cm9rZT0iIzAwMDAwMCIgZmlsbD0ibm9uZSIgc3Ryb2tlLWxpbmVqb2luPSJyb3VuZCIgc3Ryb2tlLWxpbmVjYXA9InJvdW5kIiBzdHJva2Utd2lkdGg9IjEyIiB0cmFuc2Zvcm09Im1hdHJpeCguMDYsMCwwLC0uMDYsMCw4NDIpIi8+JiN4YTs8cGF0aCBkPSJNNjY2NSAxMTQzMlYxMTYyNyIgc3Ryb2tlPSIjMDAwMDAwIiBmaWxsPSJub25lIiBzdHJva2UtbGluZWpvaW49InJvdW5kIiBzdHJva2UtbGluZWNhcD0icm91bmQiIHN0cm9rZS13aWR0aD0iMTIiIHRyYW5zZm9ybT0ibWF0cml4KC4wNiwwLDAsLS4wNiwwLDg0MikiLz4mI3hhOzxwYXRoIGQ9Ik02NjY1IDExODgwVjEyMDc1IiBzdHJva2U9IiMwMDAwMDAiIGZpbGw9Im5vbmUiIHN0cm9rZS1saW5lam9pbj0icm91bmQiIHN0cm9rZS1saW5lY2FwPSJyb3VuZCIgc3Ryb2tlLXdpZHRoPSIxMiIgdHJhbnNmb3JtPSJtYXRyaXgoLjA2LDAsMCwtLjA2LDAsODQyKSIvPiYjeGE7PC9nPiYjeGE7PGc+JiN4YTs8cGF0aCBkPSJNNjE4NSAxMTY1NFYxMDc2NiIgc3Ryb2tlPSIjMDAwMDAwIiBmaWxsPSJub25lIiBzdHJva2UtbGluZWpvaW49InJvdW5kIiBzdHJva2UtbGluZWNhcD0icm91bmQiIHN0cm9rZS13aWR0aD0iMTIiIHRyYW5zZm9ybT0ibWF0cml4KC4wNiwwLDAsLS4wNiwwLDg0MikiLz4mI3hhOzxwYXRoIGQ9Ik02NjY1IDExNjU0VjEwNzY2IiBzdHJva2U9IiMwMDAwMDAiIGZpbGw9Im5vbmUiIHN0cm9rZS1saW5lam9pbj0icm91bmQiIHN0cm9rZS1saW5lY2FwPSJyb3VuZCIgc3Ryb2tlLXdpZHRoPSIxMiIgdHJhbnNmb3JtPSJtYXRyaXgoLjA2LDAsMCwtLjA2LDAsODQyKSIvPiYjeGE7PHBhdGggZD0iTTYzNTAgMTA4NjVINjUwMCIgc3Ryb2tlPSIjMDAwMDAwIiBmaWxsPSJub25lIiBzdHJva2UtbGluZWpvaW49InJvdW5kIiBzdHJva2UtbGluZWNhcD0icm91bmQiIHN0cm9rZS13aWR0aD0iMTIiIHRyYW5zZm9ybT0ibWF0cml4KC4wNiwwLDAsLS4wNiwwLDg0MikiLz4mI3hhOzxwYXRoIGQ9Ik02MzUwIDEwODkzVjEwODM4TDYxODUgMTA4NjVaIiB0cmFuc2Zvcm09Im1hdHJpeCguMDYsMCwwLC0uMDYsMCw4NDIpIi8+JiN4YTs8cGF0aCBkPSJNNjM1MCAxMDg5M1YxMDgzOEw2MTg1IDEwODY1WiIgc3Ryb2tlPSIjMDAwMDAwIiBmaWxsPSJub25lIiBzdHJva2UtbGluZWpvaW49Im1pdGVyIiBzdHJva2UtbWl0ZXJsaW1pdD0iMTAiIHN0cm9rZS1saW5lY2FwPSJyb3VuZCIgc3Ryb2tlLXdpZHRoPSIwIiB0cmFuc2Zvcm09Im1hdHJpeCguMDYsMCwwLC0uMDYsMCw4NDIpIi8+JiN4YTs8cGF0aCBkPSJNNjUwMCAxMDg5M1YxMDgzOEw2NjY1IDEwODY1WiIgdHJhbnNmb3JtPSJtYXRyaXgoLjA2LDAsMCwtLjA2LDAsODQyKSIvPiYjeGE7PHBhdGggZD0iTTY1MDAgMTA4OTNWMTA4MzhMNjY2NSAxMDg2NVoiIHN0cm9rZT0iIzAwMDAwMCIgZmlsbD0ibm9uZSIgc3Ryb2tlLWxpbmVqb2luPSJtaXRlciIgc3Ryb2tlLW1pdGVybGltaXQ9IjEwIiBzdHJva2UtbGluZWNhcD0icm91bmQiIHN0cm9rZS13aWR0aD0iMCIgdHJhbnNmb3JtPSJtYXRyaXgoLjA2LDAsMCwtLjA2LDAsODQyKSIvPiYjeGE7PHRleHQgZm9udC1mYW1pbHk9IlZlcmRhbmEiIGZvbnQtc2l6ZT0iMjI3LjQyMyIgdHJhbnNmb3JtPSJtYXRyaXgoLjA2IDAgLTAgLjA2IDAgODQyKSIgeG1sOnNwYWNlPSJwcmVzZXJ2ZSI+PHRzcGFuIHg9IjYxNTcgNjMwMS42NDEgNjQ0Ni4yODIgNjUyOS4wNjQ2IiB5PSItMTA5MzUiPjEwLjY8L3RzcGFuPjwvdGV4dD4mI3hhOzxwYXRoIGQ9Ik02MDg2IDExNzUzSDU4MTAiIHN0cm9rZT0iIzAwMDAwMCIgZmlsbD0ibm9uZSIgc3Ryb2tlLWxpbmVqb2luPSJyb3VuZCIgc3Ryb2tlLWxpbmVjYXA9InJvdW5kIiBzdHJva2Utd2lkdGg9IjEyIiB0cmFuc2Zvcm09Im1hdHJpeCguMDYsMCwwLC0uMDYsMCw4NDIpIi8+JiN4YTs8cGF0aCBkPSJNNTgwOCAxMjEwM0g2MDA4IiBzdHJva2U9IiMwMDAwMDAiIGZpbGw9Im5vbmUiIHN0cm9rZS1saW5lam9pbj0icm91bmQiIHN0cm9rZS1saW5lY2FwPSJyb3VuZCIgc3Ryb2tlLXdpZHRoPSIxMiIgdHJhbnNmb3JtPSJtYXRyaXgoLjA2LDAsMCwtLjA2LDAsODQyKSIvPiYjeGE7PHBhdGggZD0iTTU5MDkgMTE1ODhWMTE0MjMiIHN0cm9rZT0iIzAwMDAwMCIgZmlsbD0ibm9uZSIgc3Ryb2tlLWxpbmVqb2luPSJyb3VuZCIgc3Ryb2tlLWxpbmVjYXA9InJvdW5kIiBzdHJva2Utd2lkdGg9IjEyIiB0cmFuc2Zvcm09Im1hdHJpeCguMDYsMCwwLC0uMDYsMCw4NDIpIi8+JiN4YTs8cGF0aCBkPSJNNTkwOSAxMjI2OFYxMjQzNCIgc3Ryb2tlPSIjMDAwMDAwIiBmaWxsPSJub25lIiBzdHJva2UtbGluZWpvaW49InJvdW5kIiBzdHJva2UtbGluZWNhcD0icm91bmQiIHN0cm9rZS13aWR0aD0iMTIiIHRyYW5zZm9ybT0ibWF0cml4KC4wNiwwLDAsLS4wNiwwLDg0MikiLz4mI3hhOzxwYXRoIGQ9Ik01OTA5IDExNzUzVjEyMTAzIiBzdHJva2U9IiMwMDAwMDAiIGZpbGw9Im5vbmUiIHN0cm9rZS1saW5lam9pbj0icm91bmQiIHN0cm9rZS1saW5lY2FwPSJyb3VuZCIgc3Ryb2tlLXdpZHRoPSIxMiIgdHJhbnNmb3JtPSJtYXRyaXgoLjA2LDAsMCwtLjA2LDAsODQyKSIvPiYjeGE7PHBhdGggZD0iTTU4ODEgMTE1ODhINTkzNkw1OTA5IDExNzUzWiIgdHJhbnNmb3JtPSJtYXRyaXgoLjA2LDAsMCwtLjA2LDAsODQyKSIvPiYjeGE7PHBhdGggZD0iTTU4ODEgMTE1ODhINTkzNkw1OTA5IDExNzUzWiIgc3Ryb2tlPSIjMDAwMDAwIiBmaWxsPSJub25lIiBzdHJva2UtbGluZWpvaW49Im1pdGVyIiBzdHJva2UtbWl0ZXJsaW1pdD0iMTAiIHN0cm9rZS1saW5lY2FwPSJyb3VuZCIgc3Ryb2tlLXdpZHRoPSIwIiB0cmFuc2Zvcm09Im1hdHJpeCguMDYsMCwwLC0uMDYsMCw4NDIpIi8+JiN4YTs8cGF0aCBkPSJNNTg4MSAxMjI2OEg1OTM2TDU5MDkgMTIxMDNaIiB0cmFuc2Zvcm09Im1hdHJpeCguMDYsMCwwLC0uMDYsMCw4NDIpIi8+JiN4YTs8cGF0aCBkPSJNNTg4MSAxMjI2OEg1OTM2TDU5MDkgMTIxMDNaIiBzdHJva2U9IiMwMDAwMDAiIGZpbGw9Im5vbmUiIHN0cm9rZS1saW5lam9pbj0ibWl0ZXIiIHN0cm9rZS1taXRlcmxpbWl0PSIxMCIgc3Ryb2tlLWxpbmVjYXA9InJvdW5kIiBzdHJva2Utd2lkdGg9IjAiIHRyYW5zZm9ybT0ibWF0cml4KC4wNiwwLDAsLS4wNiwwLDg0MikiLz4mI3hhOzx0ZXh0IGZvbnQtZmFtaWx5PSJWZXJkYW5hIiBmb250LXNpemU9IjIyNy40MjMiIHRyYW5zZm9ybT0ibWF0cml4KDAgLS4wNiAuMDYgMCAwIDg0MikiIHhtbDpzcGFjZT0icHJlc2VydmUiPjx0c3BhbiB4PSIxMTczOSAxMTg4My42NDEgMTE5NjYuNDIzIiB5PSI1ODQzIj43LjQ8L3RzcGFuPjwvdGV4dD4mI3hhOzxwYXRoIGQ9Ik02MTg1IDExNjU0VjEwNzY1IiBzdHJva2U9IiMwMDAwMDAiIGZpbGw9Im5vbmUiIHN0cm9rZS1saW5lam9pbj0icm91bmQiIHN0cm9rZS1saW5lY2FwPSJyb3VuZCIgc3Ryb2tlLXdpZHRoPSIxMiIgdHJhbnNmb3JtPSJtYXRyaXgoLjA2LDAsMCwtLjA2LDAsODQyKSIvPiYjeGE7PHBhdGggZD0iTTYwMjAgMTA4NjVINTY5OCIgc3Ryb2tlPSIjMDAwMDAwIiBmaWxsPSJub25lIiBzdHJva2UtbGluZWpvaW49InJvdW5kIiBzdHJva2UtbGluZWNhcD0icm91bmQiIHN0cm9rZS13aWR0aD0iMTIiIHRyYW5zZm9ybT0ibWF0cml4KC4wNiwwLDAsLS4wNiwwLDg0MikiLz4mI3hhOzxwYXRoIGQ9Ik02MDIwIDEwODkyVjEwODM3TDYxODUgMTA4NjVaIiB0cmFuc2Zvcm09Im1hdHJpeCguMDYsMCwwLC0uMDYsMCw4NDIpIi8+JiN4YTs8cGF0aCBkPSJNNjAyMCAxMDg5MlYxMDgzN0w2MTg1IDEwODY1WiIgc3Ryb2tlPSIjMDAwMDAwIiBmaWxsPSJub25lIiBzdHJva2UtbGluZWpvaW49Im1pdGVyIiBzdHJva2UtbWl0ZXJsaW1pdD0iMTAiIHN0cm9rZS1saW5lY2FwPSJyb3VuZCIgc3Ryb2tlLXdpZHRoPSIwIiB0cmFuc2Zvcm09Im1hdHJpeCguMDYsMCwwLC0uMDYsMCw4NDIpIi8+JiN4YTs8cGF0aCBkPSJNNTY5OCAxMDg5MlYxMDgzN0w1NTMzIDEwODY1WiIgdHJhbnNmb3JtPSJtYXRyaXgoLjA2LDAsMCwtLjA2LDAsODQyKSIvPiYjeGE7PHBhdGggZD0iTTU2OTggMTA4OTJWMTA4MzdMNTUzMyAxMDg2NVoiIHN0cm9rZT0iIzAwMDAwMCIgZmlsbD0ibm9uZSIgc3Ryb2tlLWxpbmVqb2luPSJtaXRlciIgc3Ryb2tlLW1pdGVybGltaXQ9IjEwIiBzdHJva2UtbGluZWNhcD0icm91bmQiIHN0cm9rZS13aWR0aD0iMCIgdHJhbnNmb3JtPSJtYXRyaXgoLjA2LDAsMCwtLjA2LDAsODQyKSIvPiYjeGE7PHRleHQgZm9udC1mYW1pbHk9IlZlcmRhbmEiIGZvbnQtc2l6ZT0iMjI3LjQyMyIgdHJhbnNmb3JtPSJtYXRyaXgoLjA2IDAgLTAgLjA2IDAgODQyKSIgeG1sOnNwYWNlPSJwcmVzZXJ2ZSI+PHRzcGFuIHg9IjU1OTIgNTczNi42NDEgNTg4MS4yODIgNTk2NC4wNjQ2IiB5PSItMTA5MzQiPjEzLjg8L3RzcGFuPjwvdGV4dD4mI3hhOzxwYXRoIGQ9Ik01NTMzIDgxMTNWODQzNCIgc3Ryb2tlPSIjMDAwMDAwIiBmaWxsPSJub25lIiBzdHJva2UtbGluZWpvaW49InJvdW5kIiBzdHJva2UtbGluZWNhcD0icm91bmQiIHN0cm9rZS13aWR0aD0iMTIiIHRyYW5zZm9ybT0ibWF0cml4KC4wNiwwLDAsLS4wNiwwLDg0MikiLz4mI3hhOzxwYXRoIGQ9Ik04MjczIDgxMTNWODQzNCIgc3Ryb2tlPSIjMDAwMDAwIiBmaWxsPSJub25lIiBzdHJva2UtbGluZWpvaW49InJvdW5kIiBzdHJva2UtbGluZWNhcD0icm91bmQiIHN0cm9rZS13aWR0aD0iMTIiIHRyYW5zZm9ybT0ibWF0cml4KC4wNiwwLDAsLS4wNiwwLDg0MikiLz4mI3hhOzxwYXRoIGQ9Ik01Njk4IDgzMzRIODEwOCIgc3Ryb2tlPSIjMDAwMDAwIiBmaWxsPSJub25lIiBzdHJva2UtbGluZWpvaW49InJvdW5kIiBzdHJva2UtbGluZWNhcD0icm91bmQiIHN0cm9rZS13aWR0aD0iMTIiIHRyYW5zZm9ybT0ibWF0cml4KC4wNiwwLDAsLS4wNiwwLDg0MikiLz4mI3hhOzxwYXRoIGQ9Ik01Njk4IDgzNjJWODMwN0w1NTMzIDgzMzRaIiB0cmFuc2Zvcm09Im1hdHJpeCguMDYsMCwwLC0uMDYsMCw4NDIpIi8+JiN4YTs8cGF0aCBkPSJNNTY5OCA4MzYyVjgzMDdMNTUzMyA4MzM0WiIgc3Ryb2tlPSIjMDAwMDAwIiBmaWxsPSJub25lIiBzdHJva2UtbGluZWpvaW49Im1pdGVyIiBzdHJva2UtbWl0ZXJsaW1pdD0iMTAiIHN0cm9rZS1saW5lY2FwPSJyb3VuZCIgc3Ryb2tlLXdpZHRoPSIwIiB0cmFuc2Zvcm09Im1hdHJpeCguMDYsMCwwLC0uMDYsMCw4NDIpIi8+JiN4YTs8cGF0aCBkPSJNODEwOCA4MzYyVjgzMDdMODI3MyA4MzM0WiIgdHJhbnNmb3JtPSJtYXRyaXgoLjA2LDAsMCwtLjA2LDAsODQyKSIvPiYjeGE7PHBhdGggZD0iTTgxMDggODM2MlY4MzA3TDgyNzMgODMzNFoiIHN0cm9rZT0iIzAwMDAwMCIgZmlsbD0ibm9uZSIgc3Ryb2tlLWxpbmVqb2luPSJtaXRlciIgc3Ryb2tlLW1pdGVybGltaXQ9IjEwIiBzdHJva2UtbGluZWNhcD0icm91bmQiIHN0cm9rZS13aWR0aD0iMCIgdHJhbnNmb3JtPSJtYXRyaXgoLjA2LDAsMCwtLjA2LDAsODQyKSIvPiYjeGE7PHRleHQgZm9udC1mYW1pbHk9IlZlcmRhbmEiIGZvbnQtc2l6ZT0iMjI3LjQyMyIgdHJhbnNmb3JtPSJtYXRyaXgoLjA2IDAgLTAgLjA2IDAgODQyKSIgeG1sOnNwYWNlPSJwcmVzZXJ2ZSI+PHRzcGFuIHg9IjY3NTUgNjg5OS42NDEiIHk9Ii04NDA0Ij41ODwvdHNwYW4+PC90ZXh0PiYjeGE7PHBhdGggZD0iTTU2MjggNzgyMFY3NTE3IiBzdHJva2U9IiMwMDAwMDAiIGZpbGw9Im5vbmUiIHN0cm9rZS1saW5lam9pbj0icm91bmQiIHN0cm9rZS1saW5lY2FwPSJyb3VuZCIgc3Ryb2tlLXdpZHRoPSIxMiIgdHJhbnNmb3JtPSJtYXRyaXgoLjA2LDAsMCwtLjA2LDAsODQyKSIvPiYjeGE7PHBhdGggZD0iTTgxNzkgNzgyMFY3NTE3IiBzdHJva2U9IiMwMDAwMDAiIGZpbGw9Im5vbmUiIHN0cm9rZS1saW5lam9pbj0icm91bmQiIHN0cm9rZS1saW5lY2FwPSJyb3VuZCIgc3Ryb2tlLXdpZHRoPSIxMiIgdHJhbnNmb3JtPSJtYXRyaXgoLjA2LDAsMCwtLjA2LDAsODQyKSIvPiYjeGE7PHBhdGggZD0iTTU3OTMgNzYxN0g4MDEzIiBzdHJva2U9IiMwMDAwMDAiIGZpbGw9Im5vbmUiIHN0cm9rZS1saW5lam9pbj0icm91bmQiIHN0cm9rZS1saW5lY2FwPSJyb3VuZCIgc3Ryb2tlLXdpZHRoPSIxMiIgdHJhbnNmb3JtPSJtYXRyaXgoLjA2LDAsMCwtLjA2LDAsODQyKSIvPiYjeGE7PHBhdGggZD0iTTU3OTMgNzY0NFY3NTg5TDU2MjggNzYxN1oiIHRyYW5zZm9ybT0ibWF0cml4KC4wNiwwLDAsLS4wNiwwLDg0MikiLz4mI3hhOzxwYXRoIGQ9Ik01NzkzIDc2NDRWNzU4OUw1NjI4IDc2MTdaIiBzdHJva2U9IiMwMDAwMDAiIGZpbGw9Im5vbmUiIHN0cm9rZS1saW5lam9pbj0ibWl0ZXIiIHN0cm9rZS1taXRlcmxpbWl0PSIxMCIgc3Ryb2tlLWxpbmVjYXA9InJvdW5kIiBzdHJva2Utd2lkdGg9IjAiIHRyYW5zZm9ybT0ibWF0cml4KC4wNiwwLDAsLS4wNiwwLDg0MikiLz4mI3hhOzxwYXRoIGQ9Ik04MDEzIDc2NDRWNzU4OUw4MTc5IDc2MTdaIiB0cmFuc2Zvcm09Im1hdHJpeCguMDYsMCwwLC0uMDYsMCw4NDIpIi8+JiN4YTs8cGF0aCBkPSJNODAxMyA3NjQ0Vjc1ODlMODE3OSA3NjE3WiIgc3Ryb2tlPSIjMDAwMDAwIiBmaWxsPSJub25lIiBzdHJva2UtbGluZWpvaW49Im1pdGVyIiBzdHJva2UtbWl0ZXJsaW1pdD0iMTAiIHN0cm9rZS1saW5lY2FwPSJyb3VuZCIgc3Ryb2tlLXdpZHRoPSIwIiB0cmFuc2Zvcm09Im1hdHJpeCguMDYsMCwwLC0uMDYsMCw4NDIpIi8+JiN4YTs8dGV4dCBmb250LWZhbWlseT0iVmVyZGFuYSIgZm9udC1zaXplPSIyMjcuNDIzIiB0cmFuc2Zvcm09Im1hdHJpeCguMDYgMCAtMCAuMDYgMCA4NDIpIiB4bWw6c3BhY2U9InByZXNlcnZlIj48dHNwYW4geD0iNjc1NCA2ODk4LjY0MSIgeT0iLTc2ODYiPjU0PC90c3Bhbj48L3RleHQ+JiN4YTs8cGF0aCBkPSJNNTUzMyA5OTgyVjk1NjYiIHN0cm9rZT0iIzAwMDAwMCIgZmlsbD0ibm9uZSIgc3Ryb2tlLWxpbmVqb2luPSJyb3VuZCIgc3Ryb2tlLWxpbmVjYXA9InJvdW5kIiBzdHJva2Utd2lkdGg9IjEyIiB0cmFuc2Zvcm09Im1hdHJpeCguMDYsMCwwLC0uMDYsMCw4NDIpIi8+JiN4YTs8cGF0aCBkPSJNODI3MyA5OTgyVjk1NjYiIHN0cm9rZT0iIzAwMDAwMCIgZmlsbD0ibm9uZSIgc3Ryb2tlLWxpbmVqb2luPSJyb3VuZCIgc3Ryb2tlLWxpbmVjYXA9InJvdW5kIiBzdHJva2Utd2lkdGg9IjEyIiB0cmFuc2Zvcm09Im1hdHJpeCguMDYsMCwwLC0uMDYsMCw4NDIpIi8+JiN4YTs8cGF0aCBkPSJNNTY5OCA5NjY1SDgxMDgiIHN0cm9rZT0iIzAwMDAwMCIgZmlsbD0ibm9uZSIgc3Ryb2tlLWxpbmVqb2luPSJyb3VuZCIgc3Ryb2tlLWxpbmVjYXA9InJvdW5kIiBzdHJva2Utd2lkdGg9IjEyIiB0cmFuc2Zvcm09Im1hdHJpeCguMDYsMCwwLC0uMDYsMCw4NDIpIi8+JiN4YTs8cGF0aCBkPSJNNTY5OCA5NjkzVjk2MzdMNTUzMyA5NjY1WiIgdHJhbnNmb3JtPSJtYXRyaXgoLjA2LDAsMCwtLjA2LDAsODQyKSIvPiYjeGE7PHBhdGggZD0iTTU2OTggOTY5M1Y5NjM3TDU1MzMgOTY2NVoiIHN0cm9rZT0iIzAwMDAwMCIgZmlsbD0ibm9uZSIgc3Ryb2tlLWxpbmVqb2luPSJtaXRlciIgc3Ryb2tlLW1pdGVybGltaXQ9IjEwIiBzdHJva2UtbGluZWNhcD0icm91bmQiIHN0cm9rZS13aWR0aD0iMCIgdHJhbnNmb3JtPSJtYXRyaXgoLjA2LDAsMCwtLjA2LDAsODQyKSIvPiYjeGE7PHBhdGggZD0iTTgxMDggOTY5M1Y5NjM3TDgyNzMgOTY2NVoiIHRyYW5zZm9ybT0ibWF0cml4KC4wNiwwLDAsLS4wNiwwLDg0MikiLz4mI3hhOzxwYXRoIGQ9Ik04MTA4IDk2OTNWOTYzN0w4MjczIDk2NjVaIiBzdHJva2U9IiMwMDAwMDAiIGZpbGw9Im5vbmUiIHN0cm9rZS1saW5lam9pbj0ibWl0ZXIiIHN0cm9rZS1taXRlcmxpbWl0PSIxMCIgc3Ryb2tlLWxpbmVjYXA9InJvdW5kIiBzdHJva2Utd2lkdGg9IjAiIHRyYW5zZm9ybT0ibWF0cml4KC4wNiwwLDAsLS4wNiwwLDg0MikiLz4mI3hhOzx0ZXh0IGZvbnQtZmFtaWx5PSJWZXJkYW5hIiBmb250LXNpemU9IjIyNy40MjMiIHRyYW5zZm9ybT0ibWF0cml4KC4wNiAwIC0wIC4wNiAwIDg0MikiIHhtbDpzcGFjZT0icHJlc2VydmUiPjx0c3BhbiB4PSI2NzU1IDY4OTkuNjQxIiB5PSItOTczNSI+NTg8L3RzcGFuPjwvdGV4dD4mI3hhOzwvZz4mI3hhOzwvZz4mI3hhOzwvc3ZnPg==;" vertex="1" parent="6ik4fCtfQ_uQef5bXLx3-1">
          <mxGeometry x="41.338499999999996" y="39.37" width="748.38" height="1059.05" as="geometry" />
        </mxCell>
        <mxCell id="6ik4fCtfQ_uQef5bXLx3-4" value="" style="endArrow=none;html=1;rounded=0;curved=0;endSize=6;targetPerimeterSpacing=0;jumpSize=6;strokeColor=default;exitX=0.5;exitY=0.018;exitDx=0;exitDy=0;exitPerimeter=0;strokeWidth=1;" parent="6ik4fCtfQ_uQef5bXLx3-1" source="6ik4fCtfQ_uQef5bXLx3-3" edge="1">
          <mxGeometry width="50" height="50" relative="1" as="geometry">
            <mxPoint x="413.37" y="32.68" as="sourcePoint" />
            <mxPoint x="413.37" y="19.68" as="targetPoint" />
          </mxGeometry>
        </mxCell>
        <mxCell id="6ik4fCtfQ_uQef5bXLx3-5" value="" style="endArrow=none;html=1;rounded=0;entryX=0.026;entryY=0.5;entryDx=0;entryDy=0;entryPerimeter=0;strokeWidth=1;" parent="6ik4fCtfQ_uQef5bXLx3-1" target="6ik4fCtfQ_uQef5bXLx3-3" edge="1">
          <mxGeometry width="50" height="50" relative="1" as="geometry">
            <mxPoint x="19.69" y="584.67" as="sourcePoint" />
            <mxPoint x="27.69" y="584.67" as="targetPoint" />
          </mxGeometry>
        </mxCell>
        <mxCell id="6ik4fCtfQ_uQef5bXLx3-6" value="" style="endArrow=none;html=1;rounded=0;exitX=0.974;exitY=0.5;exitDx=0;exitDy=0;exitPerimeter=0;strokeWidth=1;" parent="6ik4fCtfQ_uQef5bXLx3-1" source="6ik4fCtfQ_uQef5bXLx3-3" edge="1">
          <mxGeometry width="50" height="50" relative="1" as="geometry">
            <mxPoint x="797" y="584.68" as="sourcePoint" />
            <mxPoint x="807" y="584.68" as="targetPoint" />
          </mxGeometry>
        </mxCell>
        <mxCell id="6ik4fCtfQ_uQef5bXLx3-7" value="" style="endArrow=none;html=1;rounded=0;entryX=1;entryY=0.75;entryDx=0;entryDy=0;exitX=0;exitY=0.75;exitDx=0;exitDy=0;strokeWidth=1;" parent="6ik4fCtfQ_uQef5bXLx3-1" edge="1">
          <mxGeometry width="50" height="50" relative="1" as="geometry">
            <mxPoint x="39.3" y="944.8825000000002" as="sourcePoint" />
            <mxPoint x="787.49" y="944.8825000000002" as="targetPoint" />
          </mxGeometry>
        </mxCell>
        <mxCell id="6ik4fCtfQ_uQef5bXLx3-8" value="" style="endArrow=none;html=1;rounded=0;entryX=1;entryY=0.75;entryDx=0;entryDy=0;exitX=0;exitY=0.75;exitDx=0;exitDy=0;strokeWidth=1;" parent="6ik4fCtfQ_uQef5bXLx3-1" edge="1">
          <mxGeometry width="50" height="50" relative="1" as="geometry">
            <mxPoint x="39.3" y="984.2510000000001" as="sourcePoint" />
            <mxPoint x="787.49" y="984.2510000000001" as="targetPoint" />
          </mxGeometry>
        </mxCell>
        <mxCell id="6ik4fCtfQ_uQef5bXLx3-9" value="" style="endArrow=none;html=1;rounded=0;strokeWidth=1;" parent="6ik4fCtfQ_uQef5bXLx3-1" edge="1">
          <mxGeometry width="50" height="50" relative="1" as="geometry">
            <mxPoint x="547.24" y="1130" as="sourcePoint" />
            <mxPoint x="547.24" y="944.9" as="targetPoint" />
          </mxGeometry>
        </mxCell>
        <mxCell id="6ik4fCtfQ_uQef5bXLx3-10" value="" style="endArrow=none;html=1;rounded=0;strokeWidth=1;" parent="6ik4fCtfQ_uQef5bXLx3-1" edge="1">
          <mxGeometry width="50" height="50" relative="1" as="geometry">
            <mxPoint x="307.08849999999995" y="1129.9985" as="sourcePoint" />
            <mxPoint x="307.08849999999995" y="944.9" as="targetPoint" />
          </mxGeometry>
        </mxCell>
        <mxCell id="6ik4fCtfQ_uQef5bXLx3-11" value="" style="endArrow=none;html=1;rounded=0;entryX=1;entryY=0.75;entryDx=0;entryDy=0;exitX=0;exitY=0.75;exitDx=0;exitDy=0;strokeWidth=1;" parent="6ik4fCtfQ_uQef5bXLx3-1" edge="1">
          <mxGeometry width="50" height="50" relative="1" as="geometry">
            <mxPoint x="307.1" y="1023.6195" as="sourcePoint" />
            <mxPoint x="787.5" y="1023.6195" as="targetPoint" />
          </mxGeometry>
        </mxCell>
        <mxCell id="6ik4fCtfQ_uQef5bXLx3-12" value="" style="endArrow=none;html=1;rounded=0;entryX=1;entryY=0.75;entryDx=0;entryDy=0;exitX=0;exitY=0.75;exitDx=0;exitDy=0;strokeWidth=1;" parent="6ik4fCtfQ_uQef5bXLx3-1" edge="1">
          <mxGeometry width="50" height="50" relative="1" as="geometry">
            <mxPoint x="547.2" y="1090.548" as="sourcePoint" />
            <mxPoint x="787.5" y="1090.548" as="targetPoint" />
          </mxGeometry>
        </mxCell>
        <mxCell id="6ik4fCtfQ_uQef5bXLx3-13" value="" style="endArrow=none;html=1;rounded=0;strokeWidth=1;" parent="6ik4fCtfQ_uQef5bXLx3-1" edge="1">
          <mxGeometry width="50" height="50" relative="1" as="geometry">
            <mxPoint x="586.6084999999999" y="1129.9985" as="sourcePoint" />
            <mxPoint x="586.6084999999999" y="1090.5" as="targetPoint" />
          </mxGeometry>
        </mxCell>
        <mxCell id="6ik4fCtfQ_uQef5bXLx3-14" value="" style="endArrow=none;html=1;rounded=0;strokeWidth=1;" parent="6ik4fCtfQ_uQef5bXLx3-1" edge="1">
          <mxGeometry width="50" height="50" relative="1" as="geometry">
            <mxPoint x="728.347" y="1129.9969999999998" as="sourcePoint" />
            <mxPoint x="728.347" y="1090.4985" as="targetPoint" />
          </mxGeometry>
        </mxCell>
        <mxCell id="6ik4fCtfQ_uQef5bXLx3-15" value="" style="endArrow=none;html=1;rounded=0;strokeWidth=1;" parent="6ik4fCtfQ_uQef5bXLx3-1" edge="1">
          <mxGeometry width="50" height="50" relative="1" as="geometry">
            <mxPoint x="173.22699999999986" y="984.3" as="sourcePoint" />
            <mxPoint x="173.22699999999986" y="944.8784999999999" as="targetPoint" />
          </mxGeometry>
        </mxCell>
        <mxCell id="6ik4fCtfQ_uQef5bXLx3-16" value="&lt;font style=&quot;font-size: 10px;&quot;&gt;Unit&lt;/font&gt;" style="text;html=1;align=left;verticalAlign=middle;whiteSpace=wrap;rounded=0;fillColor=none;fontStyle=0;fontFamily=Verdana;fontSize=10;" parent="6ik4fCtfQ_uQef5bXLx3-1" vertex="1">
          <mxGeometry x="41.339999999999996" y="944.88" width="25.59" height="12.29" as="geometry" />
        </mxCell>
        <mxCell id="6ik4fCtfQ_uQef5bXLx3-17" value="&lt;font style=&quot;font-size: 10px;&quot;&gt;Scale&lt;/font&gt;" style="text;html=1;align=left;verticalAlign=middle;whiteSpace=wrap;rounded=0;fontStyle=0;fontFamily=Verdana;fontSize=10;" parent="6ik4fCtfQ_uQef5bXLx3-1" vertex="1">
          <mxGeometry x="175.19849999999997" y="944.8784999999999" width="25.59" height="12.29" as="geometry" />
        </mxCell>
        <mxCell id="6ik4fCtfQ_uQef5bXLx3-18" value="&lt;font style=&quot;font-size: 10px;&quot;&gt;&lt;span style=&quot;font-size: 10px;&quot;&gt;General tolerances&lt;/span&gt;&lt;/font&gt;" style="text;html=1;align=left;verticalAlign=middle;whiteSpace=wrap;rounded=0;fontStyle=0;fontFamily=Verdana;fontSize=10;" parent="6ik4fCtfQ_uQef5bXLx3-1" vertex="1">
          <mxGeometry x="309.06" y="944.88" width="124.01" height="12.29" as="geometry" />
        </mxCell>
        <mxCell id="6ik4fCtfQ_uQef5bXLx3-19" value="&lt;font style=&quot;font-size: 10px;&quot;&gt;Material&lt;/font&gt;" style="text;html=1;align=left;verticalAlign=middle;whiteSpace=wrap;rounded=0;fontStyle=0;fontFamily=Verdana;fontSize=10;" parent="6ik4fCtfQ_uQef5bXLx3-1" vertex="1">
          <mxGeometry x="549.22" y="944.88" width="47.24" height="12.29" as="geometry" />
        </mxCell>
        <mxCell id="6ik4fCtfQ_uQef5bXLx3-20" value="&lt;font style=&quot;font-size: 10px;&quot;&gt;Created by&lt;/font&gt;" style="text;html=1;align=left;verticalAlign=middle;whiteSpace=wrap;rounded=0;fontStyle=0;fontFamily=Verdana;fontSize=10;" parent="6ik4fCtfQ_uQef5bXLx3-1" vertex="1">
          <mxGeometry x="549.22" y="984.25" width="74.79" height="12.29" as="geometry" />
        </mxCell>
        <mxCell id="6ik4fCtfQ_uQef5bXLx3-21" value="&lt;font style=&quot;font-size: 10px;&quot;&gt;Project title&lt;/font&gt;" style="text;html=1;align=left;verticalAlign=middle;whiteSpace=wrap;rounded=0;fontStyle=0;fontFamily=Verdana;fontSize=10;" parent="6ik4fCtfQ_uQef5bXLx3-1" vertex="1">
          <mxGeometry x="309.06" y="984.25" width="80.7" height="12.29" as="geometry" />
        </mxCell>
        <mxCell id="6ik4fCtfQ_uQef5bXLx3-22" value="&lt;font style=&quot;font-size: 10px;&quot;&gt;Drawing title&lt;/font&gt;" style="text;html=1;align=left;verticalAlign=middle;whiteSpace=wrap;rounded=0;fontStyle=0;fontFamily=Verdana;fontSize=10;" parent="6ik4fCtfQ_uQef5bXLx3-1" vertex="1">
          <mxGeometry x="309.06" y="1023.62" width="82.67" height="12.29" as="geometry" />
        </mxCell>
        <mxCell id="6ik4fCtfQ_uQef5bXLx3-23" value="&lt;font style=&quot;font-size: 10px;&quot;&gt;Drawing number&lt;/font&gt;" style="text;html=1;align=left;verticalAlign=middle;whiteSpace=wrap;rounded=0;fontStyle=0;fontFamily=Verdana;fontSize=10;" parent="6ik4fCtfQ_uQef5bXLx3-1" vertex="1">
          <mxGeometry x="549.22" y="1023.62" width="98.42" height="12.29" as="geometry" />
        </mxCell>
        <mxCell id="6ik4fCtfQ_uQef5bXLx3-24" value="&lt;font style=&quot;font-size: 10px;&quot;&gt;Notes (Scale 1:1)&lt;/font&gt;" style="text;html=1;align=left;verticalAlign=middle;whiteSpace=wrap;rounded=0;fontStyle=0;fontFamily=Verdana;fontSize=10;" parent="6ik4fCtfQ_uQef5bXLx3-1" vertex="1">
          <mxGeometry x="41.34" y="984.25" width="106.3" height="12.29" as="geometry" />
        </mxCell>
        <mxCell id="6ik4fCtfQ_uQef5bXLx3-25" value="&lt;font style=&quot;font-size: 10px;&quot;&gt;Rev.&lt;/font&gt;" style="text;html=1;align=left;verticalAlign=middle;whiteSpace=wrap;rounded=0;fontStyle=0;fontFamily=Verdana;fontSize=10;" parent="6ik4fCtfQ_uQef5bXLx3-1" vertex="1">
          <mxGeometry x="549.22" y="1090.55" width="41.33" height="12.29" as="geometry" />
        </mxCell>
        <mxCell id="6ik4fCtfQ_uQef5bXLx3-26" value="&lt;font style=&quot;font-size: 10px;&quot;&gt;Date of issue&lt;/font&gt;" style="text;html=1;align=left;verticalAlign=middle;whiteSpace=wrap;rounded=0;fontStyle=0;fontFamily=Verdana;fontSize=10;" parent="6ik4fCtfQ_uQef5bXLx3-1" vertex="1">
          <mxGeometry x="588" y="1090.55" width="83.26" height="12.29" as="geometry" />
        </mxCell>
        <mxCell id="6ik4fCtfQ_uQef5bXLx3-27" value="&lt;font style=&quot;font-size: 10px;&quot;&gt;Sheet&lt;/font&gt;" style="text;html=1;align=left;verticalAlign=middle;whiteSpace=wrap;rounded=0;fontStyle=0;fontFamily=Verdana;fontSize=10;" parent="6ik4fCtfQ_uQef5bXLx3-1" vertex="1">
          <mxGeometry x="729.73" y="1090.55" width="61.61" height="12.29" as="geometry" />
        </mxCell>
        <mxCell id="6ik4fCtfQ_uQef5bXLx3-28" value="&lt;font style=&quot;font-size: 20px; font-weight: normal;&quot;&gt;millimeters&lt;/font&gt;" style="text;html=1;align=left;verticalAlign=middle;whiteSpace=wrap;rounded=0;fillColor=none;fontStyle=1;fontFamily=Verdana;" parent="6ik4fCtfQ_uQef5bXLx3-1" vertex="1">
          <mxGeometry x="41.34" y="964.5699999999999" width="49.21" height="12.29" as="geometry" />
        </mxCell>
        <mxCell id="6ik4fCtfQ_uQef5bXLx3-29" value="&lt;span style=&quot;font-size: 20px; font-weight: 400;&quot;&gt;2:1&lt;/span&gt;" style="text;html=1;align=left;verticalAlign=middle;whiteSpace=wrap;rounded=0;fillColor=none;fontStyle=1;fontFamily=Verdana;" parent="6ik4fCtfQ_uQef5bXLx3-1" vertex="1">
          <mxGeometry x="175.1985" y="964.5684999999999" width="49.21" height="12.29" as="geometry" />
        </mxCell>
        <mxCell id="6ik4fCtfQ_uQef5bXLx3-30" value="&lt;font style=&quot;font-weight: normal; font-size: 20px;&quot;&gt;ISO 2768-m&lt;/font&gt;" style="text;html=1;align=left;verticalAlign=middle;whiteSpace=wrap;rounded=0;fillColor=none;fontStyle=1;fontFamily=Verdana;" parent="6ik4fCtfQ_uQef5bXLx3-1" vertex="1">
          <mxGeometry x="311.03" y="964.57" width="226.37" height="12.29" as="geometry" />
        </mxCell>
        <mxCell id="6ik4fCtfQ_uQef5bXLx3-31" value="&lt;font style=&quot;font-size: 20px; font-weight: normal;&quot;&gt;Sunflower&lt;/font&gt;" style="text;html=1;align=left;verticalAlign=middle;whiteSpace=wrap;rounded=0;fillColor=none;fontStyle=1;fontFamily=Verdana;" parent="6ik4fCtfQ_uQef5bXLx3-1" vertex="1">
          <mxGeometry x="311.03" y="1003.94" width="187" height="12.29" as="geometry" />
        </mxCell>
        <mxCell id="6ik4fCtfQ_uQef5bXLx3-32" value="&lt;font style=&quot;font-size: 20px; font-weight: normal;&quot;&gt;Polylactic Acid (PLA)&lt;/font&gt;" style="text;html=1;align=left;verticalAlign=middle;whiteSpace=wrap;rounded=0;fillColor=none;fontStyle=1;fontFamily=Verdana;" parent="6ik4fCtfQ_uQef5bXLx3-1" vertex="1">
          <mxGeometry x="551.18" y="964.57" width="226.38" height="12.29" as="geometry" />
        </mxCell>
        <mxCell id="6ik4fCtfQ_uQef5bXLx3-33" value="&lt;font style=&quot;font-size: 20px; font-weight: normal;&quot;&gt;teoelectric&lt;/font&gt;" style="text;html=1;align=left;verticalAlign=middle;whiteSpace=wrap;rounded=0;fillColor=none;fontStyle=1;fontFamily=Verdana;" parent="6ik4fCtfQ_uQef5bXLx3-1" vertex="1">
          <mxGeometry x="551.17" y="1003.94" width="145.67" height="12.29" as="geometry" />
        </mxCell>
        <mxCell id="6ik4fCtfQ_uQef5bXLx3-34" value="&lt;span style=&quot;font-size: 20px; font-weight: 400;&quot;&gt;9&lt;/span&gt;" style="text;html=1;align=center;verticalAlign=middle;whiteSpace=wrap;rounded=0;fillColor=none;fontStyle=1;fontFamily=Verdana;" parent="6ik4fCtfQ_uQef5bXLx3-1" vertex="1">
          <mxGeometry x="557.0899999999999" y="1053.15" width="220.47" height="12.29" as="geometry" />
        </mxCell>
        <mxCell id="6ik4fCtfQ_uQef5bXLx3-35" value="&lt;font style=&quot;font-size: 20px; font-weight: normal;&quot;&gt;Sunflower Display Dimensions&lt;/font&gt;" style="text;html=1;align=left;verticalAlign=middle;whiteSpace=wrap;rounded=0;fillColor=none;fontStyle=1;fontFamily=Verdana;" parent="6ik4fCtfQ_uQef5bXLx3-1" vertex="1">
          <mxGeometry x="311.03" y="1068.9" width="244.09" height="12.29" as="geometry" />
        </mxCell>
        <mxCell id="6ik4fCtfQ_uQef5bXLx3-36" value="&lt;font style=&quot;font-size: 20px; font-weight: normal;&quot;&gt;1/1&lt;/font&gt;" style="text;html=1;align=left;verticalAlign=middle;whiteSpace=wrap;rounded=0;fillColor=none;fontStyle=1;fontFamily=Verdana;" parent="6ik4fCtfQ_uQef5bXLx3-1" vertex="1">
          <mxGeometry x="735.934" y="1106.2939999999994" width="49.21" height="12.29" as="geometry" />
        </mxCell>
        <mxCell id="6ik4fCtfQ_uQef5bXLx3-37" value="&lt;font style=&quot;font-size: 20px; font-weight: normal;&quot;&gt;10/08/2025&lt;/font&gt;" style="text;html=1;align=center;verticalAlign=middle;whiteSpace=wrap;rounded=0;fillColor=none;fontStyle=1;fontFamily=Verdana;" parent="6ik4fCtfQ_uQef5bXLx3-1" vertex="1">
          <mxGeometry x="647.64" y="1106.2900000000002" width="19.69" height="12.29" as="geometry" />
        </mxCell>
        <mxCell id="6ik4fCtfQ_uQef5bXLx3-38" value="&lt;font style=&quot;font-size: 20px; font-weight: normal;&quot;&gt;A&lt;/font&gt;" style="text;html=1;align=center;verticalAlign=middle;whiteSpace=wrap;rounded=0;fillColor=none;fontStyle=1;fontFamily=Verdana;" parent="6ik4fCtfQ_uQef5bXLx3-1" vertex="1">
          <mxGeometry x="557.0884999999998" y="1106.2985" width="19.69" height="12.29" as="geometry" />
        </mxCell>
        <mxCell id="6ik4fCtfQ_uQef5bXLx3-39" value="&lt;font style=&quot;font-size: 20px; font-weight: normal;&quot;&gt;Cap&amp;nbsp;&lt;/font&gt;&lt;font style=&quot;font-size: 20px;&quot;&gt;(C)&lt;/font&gt;&lt;font style=&quot;font-size: 20px; font-weight: normal;&quot;&gt; height: 4&lt;/font&gt;" style="text;html=1;align=left;verticalAlign=middle;whiteSpace=wrap;rounded=0;fillColor=none;fontStyle=1;fontFamily=Verdana;" parent="6ik4fCtfQ_uQef5bXLx3-1" vertex="1">
          <mxGeometry x="41.33" y="1003.94" width="259.85" height="12.29" as="geometry" />
        </mxCell>
        <mxCell id="YUCStTvPWFlk6TsdCaYC-1" value="&lt;font style=&quot;font-size: 8px;&quot;&gt;(C)&lt;/font&gt;" style="text;html=1;align=center;verticalAlign=middle;whiteSpace=wrap;rounded=0;fontFamily=Verdana;fontSize=8;fontColor=#000000;fontStyle=1" vertex="1" parent="6ik4fCtfQ_uQef5bXLx3-1">
          <mxGeometry x="620.0740000000001" y="312.99399999999997" width="33.46" height="18.19" as="geometry" />
        </mxCell>
      </root>
    </mxGraphModel>
  </diagram>
</mxfile>
